<svg width="17" height="16" viewBox="0 0 17 16" fill="none" xmlns="http://www.w3.org/2000/svg">
<path d="M11.695 0.744141C10.949 0.744141 10.236 0.915159 9.5758 1.25248C9.12642 1.48205 8.71359 1.78708 8.35938 2.14897C8.00513 1.78708 7.59233 1.48205 7.14295 1.25248C6.48276 0.915159 5.76975 0.744141 5.02372 0.744141C2.45181 0.744141 0.359375 2.83658 0.359375 5.40852C0.359375 7.23018 1.32145 9.16492 3.21886 11.1591C4.80309 12.8241 6.74268 14.2121 8.09081 15.0832L8.35938 15.2568L8.62794 15.0832C9.97607 14.2121 11.9157 12.8241 13.4999 11.1591C15.3973 9.16492 16.3594 7.23018 16.3594 5.40852C16.3594 2.83658 14.2669 0.744141 11.695 0.744141ZM12.7829 10.4769C11.3671 11.9649 9.64244 13.2299 8.35938 14.0766C7.07631 13.2299 5.35167 11.9649 3.93585 10.4769C2.21937 8.67292 1.34907 6.96768 1.34907 5.40852C1.34907 3.38229 2.99753 1.73383 5.02375 1.73383C6.1903 1.73383 7.26191 2.26968 7.96373 3.20395L8.35938 3.73063L8.75502 3.20395C9.45684 2.26968 10.5284 1.73383 11.695 1.73383C13.7212 1.73383 15.3697 3.38229 15.3697 5.40852C15.3697 6.96768 14.4994 8.67292 12.7829 10.4769Z" fill="#181a20"/>
</svg>
