<svg width="17" height="16" viewBox="0 0 17 16" fill="none" xmlns="http://www.w3.org/2000/svg">
<path d="M14.0162 10.3431C13.1449 9.47181 12.1078 8.82678 10.9762 8.43631C12.1882 7.60159 12.9844 6.20463 12.9844 4.625C12.9844 2.07478 10.9096 0 8.35938 0C5.80916 0 3.73438 2.07478 3.73438 4.625C3.73438 6.20463 4.53059 7.60159 5.74256 8.43631C4.611 8.82678 3.57387 9.47181 2.70253 10.3431C1.19153 11.8542 0.359375 13.8631 0.359375 16H1.60938C1.60938 12.278 4.63741 9.25 8.35938 9.25C12.0813 9.25 15.1094 12.278 15.1094 16H16.3594C16.3594 13.8631 15.5272 11.8542 14.0162 10.3431ZM8.35938 8C6.49841 8 4.98438 6.486 4.98438 4.625C4.98438 2.764 6.49841 1.25 8.35938 1.25C10.2203 1.25 11.7344 2.764 11.7344 4.625C11.7344 6.486 10.2203 8 8.35938 8Z" fill="#181a20"/>
</svg>
