<svg width="17" height="16" viewBox="0 0 17 16" fill="none" xmlns="http://www.w3.org/2000/svg">
<path d="M12.9328 11.9083H6.57909L6.21016 10.4326H14.541L16.3594 3.15918H4.39181L3.76194 0.639648H0.359375V1.6834H2.947L5.516 11.9592C4.76434 12.1458 4.20544 12.826 4.20544 13.6346C4.20544 14.5865 4.97984 15.3609 5.93172 15.3609C6.88356 15.3609 7.658 14.5865 7.658 13.6346C7.658 13.3922 7.60759 13.1615 7.51703 12.9521H11.3476C11.257 13.1615 11.2066 13.3922 11.2066 13.6346C11.2066 14.5865 11.981 15.3609 12.9329 15.3609C13.8847 15.3609 14.6592 14.5865 14.6592 13.6346C14.6591 12.6828 13.8847 11.9083 12.9328 11.9083ZM9.32903 9.38883H8.17028L7.91141 7.31774H9.32906V9.38883H9.32903ZM13.2316 4.2029H15.0226L14.5048 6.27399H12.9727L13.2316 4.2029ZM12.8423 7.31777H14.2438L13.7261 9.38887H12.5834L12.8423 7.31777ZM10.3728 4.2029H12.1798L11.9209 6.27399H10.3728V4.2029H10.3728ZM10.3728 7.31774H11.7904L11.5315 9.38883H10.3728V7.31774H10.3728ZM9.32903 4.2029V6.27399H7.78094L7.52206 4.2029H9.32903ZM4.65275 4.2029H6.47019L6.72906 6.27399H5.17053L4.65275 4.2029ZM5.43147 7.31774H6.85956L7.11844 9.38883H5.94925L5.43147 7.31774ZM5.93172 14.3172C5.55538 14.3172 5.24919 14.011 5.24919 13.6346C5.24919 13.2583 5.55538 12.9521 5.93172 12.9521C6.30806 12.9521 6.61425 13.2583 6.61425 13.6346C6.61425 14.011 6.30806 14.3172 5.93172 14.3172ZM12.9328 14.3172C12.5565 14.3172 12.2503 14.011 12.2503 13.6346C12.2503 13.2583 12.5565 12.9521 12.9328 12.9521C13.3092 12.9521 13.6154 13.2583 13.6154 13.6346C13.6154 14.011 13.3092 14.3172 12.9328 14.3172Z" fill="#181a20"/>
</svg>
