<svg xmlns="http://www.w3.org/2000/svg" viewBox="0 0 190.69 211.2"><g fill="#181a20"><path d="M166.73,105.74q0-47.17,0-94.33c0-8.16,7.91-13.4,16.06-10.69,4.6,1.54,7.17,4.59,7.82,8.89a16.07,16.07,0,0,1,.06,2.3q0,93.84,0,187.68c0,5.74-2.62,9.38-7.68,10.89-8.62,2.56-16.24-2.26-16.25-10.41q-.06-42,0-84.11Z"/><path d="M134.82,115.69c0,27.7,0,55.39,0,83.08,0,9.16-8,14.68-16.44,11.54-4.54-1.69-7-5.08-7.43-9.85-.12-1.24-.06-2.49-.06-3.74q0-81.39,0-162.79a23.06,23.06,0,0,1,.36-5.2,11.93,11.93,0,0,1,23.54,2.76c.11,12.23,0,24.45,0,36.68Z"/><path d="M0,139.4c0-20,0-39.92,0-59.88a11.93,11.93,0,0,1,23.52-3,13.35,13.35,0,0,1,.38,3.33q0,59.51,0,119c0,9.28-8.33,14.76-16.85,11.32C2.42,208.27,0,204.41,0,198.52Q0,169,0,139.4Z"/><path d="M79.1,151.56c0,14.69.06,29.39,0,44.08C79,207.49,70.54,214.41,62,209.71c-4.46-2.44-6.74-6.94-6.75-12.91q-.12-45.49,0-91c0-8.44,5.47-14.85,12-14.76s11.79,6.55,11.86,15C79.18,121.23,79.1,136.39,79.1,151.56Z"/></g></svg>