<svg xmlns="http://www.w3.org/2000/svg" width="24" height="24" viewBox="0 0 24 24" focusable="false"><path fill="#fca32c" fill-rule="nonzero" d="M17.436 13.164l.628 1.41a.938.938 0 01-1.713.762l-.637-1.433c-.88.294-1.812.485-2.78.56v1.6a.937.937 0 11-1.874 0v-1.6a11.602 11.602 0 01-2.777-.562l-.64 1.435a.937.937 0 11-1.712-.762l.63-1.413a11.046 11.046 0 01-2.093-1.444l-.892.803a.937.937 0 11-1.254-1.393l.848-.764c-.378-.47-.717-.974-1.013-1.506a1.25 1.25 0 012.185-1.214C5.802 10.27 8.67 12 11.998 12c3.337 0 6.193-1.724 7.655-4.357a1.25 1.25 0 112.185 1.214c-.294.53-.63 1.03-1.005 1.498l.857.772a.938.938 0 01-1.254 1.393l-.899-.81a11.006 11.006 0 01-2.1 1.454z"></path></svg>