<svg xmlns="http://www.w3.org/2000/svg" viewBox="0 0 486.4 486.4"><g fill="#181a20"><path d="M205,486.4a72.26,72.26,0,0,1-51.46-21.32L21.31,332.85a72.77,72.77,0,0,1,0-102.9h0L229.9,21.32A72.3,72.3,0,0,1,281.39,0H413.63A72.86,72.86,0,0,1,486.4,72.77V205a72.24,72.24,0,0,1-21.32,51.5L256.5,465.08A72.32,72.32,0,0,1,205,486.4ZM281.39,24.32a48.18,48.18,0,0,0-34.26,14.19L38.51,247.13a48.45,48.45,0,0,0,0,68.52h0L170.74,447.89a48.45,48.45,0,0,0,68.52,0h0L447.89,239.26A48.18,48.18,0,0,0,462.08,205V72.77a48.51,48.51,0,0,0-48.45-48.45Zm120.12,97A36.41,36.41,0,1,1,438,84.89,36.41,36.41,0,0,1,401.51,121.3Zm0-48.45a12.08,12.08,0,1,0,12.08,12.08,12.08,12.08,0,0,0-12.08-12.08h0Z"/></g></svg>