<svg width="17" height="16" viewBox="0 0 17 16" fill="none" xmlns="http://www.w3.org/2000/svg">
<path d="M6.92006 0C10.5376 0 13.4808 2.94313 13.4808 6.56069C13.4808 8.14497 12.9163 9.59984 11.9779 10.7349L16.3594 15.1164L15.4758 16L11.0943 11.6185C9.95922 12.5569 8.50434 13.1214 6.92006 13.1214C3.3025 13.1214 0.359375 10.1783 0.359375 6.56069C0.359375 2.94313 3.30247 0 6.92006 0ZM6.92006 11.8717C9.84856 11.8717 12.2311 9.48919 12.2311 6.56069C12.2311 3.63219 9.84856 1.24966 6.92006 1.24966C3.99156 1.24966 1.60903 3.63219 1.60903 6.56069C1.60903 9.48919 3.99156 11.8717 6.92006 11.8717Z" fill="black"/>
</svg>
