<svg version="1.0" class="jq-star-svg" shape-rendering="geometricPrecision" xmlns="http://www.w3.org/2000/svg" x="0px" y="0px" width="305px" height="305px" viewBox="60 -62 309 309" style="enable-background:new 64 -59 305 305; stroke-width:4px;" xml:space="preserve"><style type="text/css">.svg-empty-923{fill:url(#923_SVGID_1_);}.svg-hovered-923{fill:url(#923_SVGID_2_);}.svg-active-923{fill:url(#923_SVGID_3_);}.svg-rated-923{fill:#ffb700;}</style><polygon data-side="center" class="svg-empty-923" points="281.1,129.8 364,55.7 255.5,46.8 214,-59 172.5,46.8 64,55.4 146.8,129.7 121.1,241 212.9,181.1 213.9,181 306.5,241 " style="fill: transparent; stroke: black;"></polygon><polygon data-side="left" class="svg-empty-923" points="281.1,129.8 364,55.7 255.5,46.8 214,-59 172.5,46.8 64,55.4 146.8,129.7 121.1,241 213.9,181.1 213.9,181 306.5,241 " style="stroke-opacity: 0;"></polygon><polygon data-side="right" class="svg-empty-923" points="364,55.7 255.5,46.8 214,-59 213.9,181 306.5,241 281.1,129.8 " style="stroke-opacity: 0;"></polygon></svg>