<svg width="22" height="23" viewBox="0 0 22 23" fill="none" xmlns="http://www.w3.org/2000/svg">
<path d="M18.5547 3.91016C16.5527 1.85938 13.8184 0.6875 10.8887 0.6875C4.93164 0.6875 0.0488281 5.57031 0.0488281 11.5273C0.0488281 13.4805 0.585938 15.3359 1.51367 16.9473L0 22.5625L5.71289 21.0977C7.32422 21.9277 9.08203 22.416 10.8887 22.416C16.8945 22.416 21.875 17.5332 21.875 11.5762C21.875 8.64648 20.6055 5.96094 18.5547 3.91016ZM10.8887 20.5605C9.27734 20.5605 7.71484 20.1211 6.29883 19.291L6.00586 19.0957L2.58789 20.0234L3.51562 16.7031L3.27148 16.3613C2.39258 14.8965 1.9043 13.2363 1.9043 11.5273C1.9043 6.5957 5.95703 2.54297 10.9375 2.54297C13.3301 2.54297 15.5762 3.4707 17.2852 5.17969C18.9941 6.88867 20.0195 9.13477 20.0195 11.5762C20.0195 16.5078 15.8691 20.5605 10.8887 20.5605ZM15.8691 13.8223C15.5762 13.6758 14.2578 13.041 14.0137 12.9434C13.7695 12.8457 13.5742 12.7969 13.3789 13.0898C13.2324 13.334 12.6953 13.9688 12.5488 14.1641C12.3535 14.3105 12.207 14.3594 11.9629 14.2129C10.3516 13.4316 9.32617 12.7969 8.25195 10.9902C7.95898 10.502 8.54492 10.5508 9.0332 9.52539C9.13086 9.33008 9.08203 9.18359 9.0332 9.03711C8.98438 8.89062 8.39844 7.57227 8.20312 7.03516C7.95898 6.49805 7.76367 6.54688 7.56836 6.54688C7.42188 6.54688 7.22656 6.54688 7.08008 6.54688C6.88477 6.54688 6.5918 6.5957 6.34766 6.88867C6.10352 7.18164 5.41992 7.81641 5.41992 9.13477C5.41992 10.502 6.34766 11.7715 6.49414 11.9668C6.64062 12.1133 8.39844 14.8477 11.1328 16.0195C12.8418 16.8008 13.5254 16.8496 14.4043 16.7031C14.8926 16.6543 15.9668 16.0684 16.2109 15.4336C16.4551 14.7988 16.4551 14.2617 16.3574 14.1641C16.3086 14.0176 16.1133 13.9688 15.8691 13.8223Z" fill="black"/>
</svg>
