<svg width="100%" height="100%" id="svg" viewBox="0 0 1440 600" xmlns="http://www.w3.org/2000/svg" class="transition duration-300 ease-in-out delay-150"><defs><linearGradient id="gradient" x1="29%" y1="95%" x2="71%" y2="5%"><stop offset="5%" stop-color="#ff690044"></stop><stop offset="95%" stop-color="#fcb90044"></stop></linearGradient></defs><path d="M 0,600 C 0,600 0,120 0,120 C 44.683285310211744,121.40843004044517 89.36657062042349,122.81686008089034 140,126 C 190.6334293795765,129.18313991910966 247.21700282851782,134.14098971688387 295,136 C 342.7829971714822,137.85901028311613 381.76541806550523,136.61918105157417 426,123 C 470.23458193449477,109.38081894842581 519.7213249094611,83.38228607681937 572,88 C 624.2786750905389,92.61771392318063 679.3492822966507,127.85167464114832 733,136 C 786.6507177033493,144.14832535885168 838.8815459039361,125.21101535858733 880,129 C 921.1184540960639,132.78898464141267 951.1245340876048,159.30426392450235 991,162 C 1030.8754659123952,164.69573607549765 1080.6203177456448,143.57192894340324 1137,128 C 1193.3796822543552,112.42807105659678 1256.3941949298157,102.40802030188479 1308,102 C 1359.6058050701843,101.59197969811521 1399.802902535092,110.7959898490576 1440,120 C 1440,120 1440,600 1440,600 Z" stroke="none" stroke-width="0" fill="url(#gradient)" class="transition-all duration-300 ease-in-out delay-150 path-0" transform="rotate(-180 720 300)"></path><defs><linearGradient id="gradient" x1="29%" y1="95%" x2="71%" y2="5%"><stop offset="5%" stop-color="#ff690066"></stop><stop offset="95%" stop-color="#fcb90066"></stop></linearGradient></defs><path d="M 0,600 C 0,600 0,240 0,240 C 34.253390256152684,242.72338681963575 68.50678051230537,245.4467736392715 117,258 C 165.49321948769463,270.5532263607285 228.2262682069312,292.9362922625499 289,281 C 349.7737317930688,269.0637077374501 408.5881466599698,222.80805731052897 454,205 C 499.4118533400302,187.19194268947103 531.4211451531894,197.83147849533427 577,198 C 622.5788548468106,198.16852150466573 681.7272727272726,187.86602870813397 724,204 C 766.2727272727274,220.13397129186603 791.6697639377197,262.70440667212983 843,280 C 894.3302360622803,297.29559332787017 971.5936715218484,289.31634460334664 1026,271 C 1080.4063284781516,252.68365539665336 1111.955549974887,224.03021491448362 1147,215 C 1182.044450025113,205.96978508551638 1220.5841285786037,216.562795738719 1270,224 C 1319.4158714213963,231.437204261281 1379.7079357106982,235.7186021306405 1440,240 C 1440,240 1440,600 1440,600 Z" stroke="none" stroke-width="0" fill="url(#gradient)" class="transition-all duration-300 ease-in-out delay-150 path-1" transform="rotate(-180 720 300)"></path><defs><linearGradient id="gradient" x1="29%" y1="95%" x2="71%" y2="5%"><stop offset="5%" stop-color="#ff690088"></stop><stop offset="95%" stop-color="#fcb90088"></stop></linearGradient></defs><path d="M 0,600 C 0,600 0,360 0,360 C 53.02739961405271,338.1177800100452 106.05479922810542,316.2355600200904 157,317 C 207.94520077189458,317.7644399799096 256.80820270163105,341.1755399296836 306,349 C 355.19179729836895,356.8244600703164 404.7123899653705,349.06228026117526 449,358 C 493.2876100346295,366.93771973882474 532.342237436887,392.5753390256152 574,392 C 615.657762563113,391.4246609743848 659.9186602870814,364.6363636363636 711,360 C 762.0813397129186,355.3636363636364 819.9831214147874,372.87920642893016 868,386 C 916.0168785852126,399.12079357106984 954.1488540537682,407.8468106479157 997,395 C 1039.8511459462318,382.1531893520843 1087.4214623701394,347.73355097940725 1142,336 C 1196.5785376298606,324.26644902059275 1258.1652964656744,335.218985434455 1309,343 C 1359.8347035343256,350.781014565545 1399.917351767163,355.3905072827725 1440,360 C 1440,360 1440,600 1440,600 Z" stroke="none" stroke-width="0" fill="url(#gradient)" class="transition-all duration-300 ease-in-out delay-150 path-2" transform="rotate(-180 720 300)"></path><defs><linearGradient id="gradient" x1="29%" y1="95%" x2="71%" y2="5%"><stop offset="5%" stop-color="#ff6900ff"></stop><stop offset="95%" stop-color="#fcb900ff"></stop></linearGradient></defs><path d="M 0,600 C 0,600 0,480 0,480 C 42.685889132675996,455.3342541436464 85.37177826535199,430.6685082872928 129,443 C 172.628221734648,455.3314917127072 217.19877607126807,504.66022099447514 269,512 C 320.80122392873193,519.3397790055249 379.83311744957575,484.6906077348067 436,470 C 492.16688255042425,455.3093922651933 545.468754130429,460.5773480662983 589,469 C 632.531245869571,477.4226519337017 666.2918660287082,489 712,495 C 757.7081339712918,501 815.3637817547383,501.4226519337016 863,505 C 910.6362182452617,508.5773480662984 948.2530069523382,515.3093922651934 1001,498 C 1053.7469930476618,480.6906077348066 1121.624190435909,439.3397790055248 1168,442 C 1214.375809564091,444.6602209944752 1239.250231304026,491.33149171270713 1281,505 C 1322.749768695974,518.6685082872929 1381.374884347987,499.33425414364643 1440,480 C 1440,480 1440,600 1440,600 Z" stroke="none" stroke-width="0" fill="url(#gradient)" class="transition-all duration-300 ease-in-out delay-150 path-3" transform="rotate(-180 720 300)"></path></svg>