<svg xmlns="http://www.w3.org/2000/svg" xmlns:xlink="http://www.w3.org/1999/xlink" width="297" height="30"><defs><path id="a" d="M37.24 20.04c-.04-3.22 2.88-5.02 5.07-6.1 2.26-1.1 3.02-1.8 3-2.78-.01-1.5-1.8-2.16-3.46-2.19-2.91-.04-4.6.79-5.95 1.42l-1.05-4.91c2.05-.8 4.24-1.2 6.44-1.19 6.09 0 10.07 3 10.09 7.66.02 5.91-8.18 6.24-8.12 8.88.02.8.78 1.66 2.46 1.87.83.11 3.12.2 5.71-1l1.02 4.75c-1.4.5-3.19 1-5.42 1-5.73 0-9.76-3.05-9.8-7.4m25 6.99a2.64 2.64 0 0 1-2.46-1.65L51.08 4.64h6.08l1.21 3.34h7.43l.7-3.34h5.36l-4.66 22.4h-4.95m.85-6.05l1.75-8.41h-4.8l3.05 8.4m-33.23 6.06l-4.8-22.4h5.8l4.79 22.4h-5.8m-8.57 0l-6.03-15.25-2.44 12.96a2.7 2.7 0 0 1-2.67 2.29H.3l-.14-.65c1.98-.4 3.9-1.03 5.72-1.9.85-.47 1.1-.88 1.37-1.98l4.62-17.87h6.12l9.39 22.4h-6.09"/></defs><g fill="none" fill-rule="evenodd" transform="translate(0 -1)"><g fill-rule="nonzero"><path fill="#7673C0" d="M169.12 4.11h13.48v22.95h-13.48z"/><path fill="#EB001B" d="M169.54 15.59c0-4.48 2.1-8.7 5.73-11.47a15.3 15.3 0 0 0-20.3 1.57 14.29 14.29 0 0 0 0 19.79 15.3 15.3 0 0 0 20.3 1.57 14.42 14.42 0 0 1-5.73-11.47v.01z"/><path fill="#00A1DF" d="M200.26 15.59c0 5.58-3.28 10.67-8.44 13.11A15.34 15.34 0 0 1 176 27.05a14.44 14.44 0 0 0 5.73-11.46c0-4.48-2.11-8.7-5.73-11.47a15.35 15.35 0 0 1 15.82-1.65 14.55 14.55 0 0 1 8.44 13.11v.01z"/></g><path fill="#FFF" fill-rule="nonzero" d="M274 15v12h7.3v-6.75h7.33c3.83 0 7.1-2.18 8.37-5.25h-23zm0-11c.02.58.11 1.16.25 1.7l.09.35.04.15a9.87 9.87 0 0 0 9.43 6.8h13.05a7.55 7.55 0 0 0-2.4-7 7.8 7.8 0 0 0-5.25-2H274zm-12.58 2.43l-4.92 11.16h-.5V4h-7v23h5.94a4 4 0 0 0 3.64-2.43l4.92-11.16h.5V27h7V4h-5.94a4 4 0 0 0-3.64 2.43zm-33.2.59l3.04 10.57h.5l3.02-10.57A4.13 4.13 0 0 1 238.76 4H246v23h-7.24V13.41h-.52L234.08 27h-5.16l-4.16-13.59h-.52V27H217V4h7.24a4.13 4.13 0 0 1 3.98 3.02z"/><g fill-rule="nonzero"><path fill="#FF5F00" d="M104.39 4.17h15.26v23.27H106.4z"/><path fill="#EB001B" d="M105.72 15.8a14.7 14.7 0 0 1 5.77-11.64A15.28 15.28 0 0 0 102.15 1C93.77 1 87 7.62 87 15.8c0 8.17 6.78 14.8 15.15 14.8 3.53 0 6.77-1.2 9.34-3.17a14.65 14.65 0 0 1-5.76-11.63h-.01z"/><path fill="#F79E1B" d="M137 15.8c0 8.17-6.78 14.8-15.15 14.8-3.38 0-6.66-1.11-9.34-3.17a14.59 14.59 0 0 0 0-23.27A15.28 15.28 0 0 1 121.85 1C130.23 1 137 7.66 137 15.8z"/></g><use fill="#FFF" transform="matrix(1 0 0 -1 0 31.74)" xlink:href="#a"/></g></svg>