<svg width="28" height="28" viewBox="0 0 28 28" fill="none" xmlns="http://www.w3.org/2000/svg">
<path d="M13.9163 0.666504C6.55631 0.666504 0.596313 6.63984 0.596313 13.9998C0.596313 21.3598 6.55631 27.3332 13.9163 27.3332C21.2896 27.3332 27.263 21.3598 27.263 13.9998C27.263 6.63984 21.2896 0.666504 13.9163 0.666504ZM13.9296 24.6665C8.03631 24.6665 3.26298 19.8932 3.26298 13.9998C3.26298 8.1065 8.03631 3.33317 13.9296 3.33317C19.823 3.33317 24.5963 8.1065 24.5963 13.9998C24.5963 19.8932 19.823 24.6665 13.9296 24.6665ZM14.5963 7.33317H12.5963V15.3332L19.5963 19.5332L20.5963 17.8932L14.5963 14.3332V7.33317Z" fill="#ffcb66"/>
</svg>
