<svg xmlns="http://www.w3.org/2000/svg" width="24" height="24" viewBox="0 0 24 24" focusable="false"><path fill="#fca32c" fill-opacity="1" fill-rule="nonzero" d="M15.75 12.143C15.75 14.273 14.07 16 12 16a3.696 3.696 0 01-2.789-1.279c-.173-.214-.317-.526-.175-.71.114-.147.292-.11.477-.045.192.068.398.105.612.105 1.036 0 1.875-.863 1.875-1.928s-.599-1.702-1.091-1.937c-.465-.221-1.138-.345-2.029-.08l-.099.037a8.505 8.505 0 00-4.438 3.89 1.232 1.232 0 01-1.7.5 1.305 1.305 0 01-.485-1.749C4.053 9.294 7.754 7 12 7c4.257 0 7.944 2.29 9.842 5.804.336.62.118 1.404-.485 1.748a1.232 1.232 0 01-1.7-.499 8.488 8.488 0 00-4.44-3.894c.338.58.533 1.258.533 1.984z"></path></svg>