<svg xmlns="http://www.w3.org/2000/svg" xmlns:xlink="http://www.w3.org/1999/xlink" viewBox="0 0 2450 782.77"><defs><style>.cls-1{fill:#fff;}.cls-2{fill:url(#Безымянный_градиент_5);}.cls-3{fill:url(#Безымянный_градиент_5-2);}.cls-4{fill:url(#Безымянный_градиент_5-3);}.cls-5{fill:url(#Безымянный_градиент_5-4);}.cls-6{fill:url(#Безымянный_градиент_5-5);}.cls-7{fill:url(#Безымянный_градиент_5-6);}.cls-8{fill:url(#Безымянный_градиент_5-7);}.cls-9{fill:url(#Безымянный_градиент_5-8);}.cls-10{fill:url(#Безымянный_градиент_5-9);}.cls-11{fill:url(#Безымянный_градиент_5-10);}.cls-12{fill:url(#Безымянный_градиент_5-11);}.cls-13{fill:url(#Безымянный_градиент_5-12);}.cls-14{fill:url(#Безымянный_градиент_5-13);}.cls-15{fill:url(#Безымянный_градиент_5-14);}.cls-16{fill:url(#Безымянный_градиент_5-15);}.cls-17{fill:url(#Безымянный_градиент_5-16);}.cls-18{fill:url(#Безымянный_градиент_5-17);}.cls-19{fill:url(#Безымянный_градиент_3);}.cls-20{fill:url(#Безымянный_градиент_8);}.cls-21{fill:url(#Безымянный_градиент_8-2);}</style><linearGradient id="Безымянный_градиент_5" x1="1649.96" y1="301.22" x2="1996.15" y2="716.65" gradientUnits="userSpaceOnUse"><stop offset="0" stop-color="#ffe077"/><stop offset="1" stop-color="#ff4d23"/></linearGradient><linearGradient id="Безымянный_градиент_5-2" x1="1683.93" y1="272.91" x2="2030.12" y2="688.34" xlink:href="#Безымянный_градиент_5"/><linearGradient id="Безымянный_градиент_5-3" x1="1721.57" y1="241.54" x2="2067.76" y2="656.97" xlink:href="#Безымянный_градиент_5"/><linearGradient id="Безымянный_градиент_5-4" x1="1757.71" y1="211.42" x2="2103.9" y2="626.86" xlink:href="#Безымянный_градиент_5"/><linearGradient id="Безымянный_градиент_5-5" x1="1793.62" y1="181.5" x2="2139.82" y2="596.93" xlink:href="#Безымянный_градиент_5"/><linearGradient id="Безымянный_градиент_5-6" x1="1815.34" y1="163.4" x2="2161.53" y2="578.83" xlink:href="#Безымянный_градиент_5"/><linearGradient id="Безымянный_градиент_5-7" x1="1860.73" y1="125.58" x2="2206.92" y2="541.01" xlink:href="#Безымянный_градиент_5"/><linearGradient id="Безымянный_градиент_5-8" x1="1897.8" y1="94.69" x2="2243.99" y2="510.12" xlink:href="#Безымянный_градиент_5"/><linearGradient id="Безымянный_градиент_5-9" x1="1934.92" y1="63.75" x2="2281.11" y2="479.19" xlink:href="#Безымянный_градиент_5"/><linearGradient id="Безымянный_градиент_5-10" x1="1976.03" y1="29.49" x2="2322.22" y2="444.93" xlink:href="#Безымянный_градиент_5"/><linearGradient id="Безымянный_градиент_5-11" x1="2016.6" y1="-4.32" x2="2362.79" y2="411.11" xlink:href="#Безымянный_градиент_5"/><linearGradient id="Безымянный_градиент_5-12" x1="1592.9" y1="348.76" x2="1939.1" y2="764.2" xlink:href="#Безымянный_градиент_5"/><linearGradient id="Безымянный_градиент_5-13" x1="1621" y1="325.35" x2="1967.19" y2="740.78" xlink:href="#Безымянный_градиент_5"/><linearGradient id="Безымянный_градиент_5-14" x1="1654.15" y1="297.72" x2="2000.35" y2="713.16" xlink:href="#Безымянный_градиент_5"/><linearGradient id="Безымянный_градиент_5-15" x1="1690.31" y1="267.59" x2="2036.51" y2="683.02" xlink:href="#Безымянный_градиент_5"/><linearGradient id="Безымянный_градиент_5-16" x1="1720.27" y1="242.62" x2="2066.47" y2="658.05" xlink:href="#Безымянный_градиент_5"/><linearGradient id="Безымянный_градиент_5-17" x1="1769.67" y1="201.46" x2="2115.86" y2="616.89" xlink:href="#Безымянный_градиент_5"/><linearGradient id="Безымянный_градиент_3" x1="-6.51" y1="618.87" x2="379.26" y2="233.09" gradientTransform="matrix(1, 0, 0, -1, 8.16, 787.86)" gradientUnits="userSpaceOnUse"><stop offset="0" stop-color="#ffe077"/><stop offset="1" stop-color="#fd9638"/></linearGradient><linearGradient id="Безымянный_градиент_8" x1="119.59" y1="418.83" x2="119.59" y2="277.14" gradientTransform="matrix(1, 0, 0, -1, 8.16, 787.86)" gradientUnits="userSpaceOnUse"><stop offset="0" stop-color="#f62814" stop-opacity="0"/><stop offset="0.28" stop-color="#f22817" stop-opacity="0.28"/><stop offset="0.57" stop-color="#e3281d" stop-opacity="0.57"/><stop offset="0.87" stop-color="#cb2728" stop-opacity="0.87"/><stop offset="1" stop-color="#be272e"/></linearGradient><linearGradient id="Безымянный_градиент_8-2" x1="221.49" y1="271.03" x2="328.28" y2="179.23" xlink:href="#Безымянный_градиент_8"/></defs><g id="Слой_2" data-name="Слой 2"><g id="Layer_1" data-name="Layer 1"><path class="cls-1" d="M543.28,335.6v-195H742.94v33.22H588.68v43.54h90.05v33.22H588.68v48.34H744.79V335.6Z"/><path class="cls-1" d="M828.56,335.6v-195H874V298.87h146.33V335.6Z"/><path class="cls-1" d="M1086.72,335.6v-195h199.65v33.22H1132.11v43.54h90.05v33.22h-90.05v48.34h156.11V335.6Z"/><path class="cls-1" d="M1535.67,175.43H1413.33V298.87h122.34V257l45.39,9.41v23.06q0,26.58-10.15,36.36t-38.19,9.78H1416.28q-28.23,0-38.29-9.69t-10.06-36.45V186.68q0-26.38,10.06-36.26t38.29-9.87h116.44q28.41,0,38.38,9.78t10,36.35v18.45l-45.39,7.2Z"/><path class="cls-1" d="M1765.41,175.43V335.6H1720V175.43h-89.49V140.55h224.75v34.88Z"/><path class="cls-1" d="M1910.81,335.6v-195h166.81q23.25,0,33.68,8.95t10.43,28.88v45.76q0,19.56-10.52,28.7T2077.62,262h-25.46l90.05,73.63-65.09-.07-78.63-73.59-43,0V335.6Zm146.7-161.28h-102v54.25h102q11.63,0,16-3.32t4.43-12.18V189.63q0-8.12-4.43-11.71T2057.51,174.32Z"/><path class="cls-1" d="M2209.75,186.68q0-26.38,10.05-36.26t38.29-9.87h143.56q28.42,0,38.39,9.78t10,36.35V289.46q0,26.58-10.06,36.36t-38.29,9.78H2258.09q-28.23,0-38.29-9.69t-10.05-36.45Zm45.39,112.19h149.47V175.43H2255.14Z"/><path class="cls-1" d="M552.33,642.22v-195h45.39v75.65H739.44V447.18H785.2v195H739.44v-84H597.72v84Z"/><path class="cls-1" d="M939.28,642.22V554.94L838,447.18H898.5l67,75,67.17-75,53.34,0L985,553.83v88.39Z"/><path class="cls-1" d="M1138.75,642.22v-195h166.82q23.23,0,33.67,8.95T1349.67,485v43.55q0,19.56-10.43,28.6t-33.67,9.05H1183.41v76Zm146.7-161.28h-102v51.67h102q11.63,0,16-3.32t4.43-12.18V496.26q0-8.11-4.43-11.72T1285.45,480.94Z"/><path class="cls-1" d="M1419.6,642.22v-195h199.66v33.21H1465v43.55h90v33.21h-90V605.5h156.1v36.72Z"/><path class="cls-2" d="M1788.78,494.58a12.49,12.49,0,0,0,4.75,7,14.46,14.46,0,0,0,8.72,2.51,13.77,13.77,0,0,0,10.49-4.41q4.14-4.43,4.64-12.32h-24.3v-8.78h24q-.87-7-4.88-10.88a13.64,13.64,0,0,0-9.91-3.92,13.86,13.86,0,0,0-8.81,2.71,12.92,12.92,0,0,0-4.61,7H1777.4a21.78,21.78,0,0,1,7.93-14.05q6.7-5.61,17.09-5.61,12.3,0,19.74,8.2t7.42,21.9q0,13.92-7.37,22t-19.85,8.12q-10.21,0-17-5.36a21.48,21.48,0,0,1-8.09-14.19Z"/><path class="cls-3" d="M1855.26,486.57a80.77,80.77,0,0,1-1,9.17,39.11,39.11,0,0,1-2.09,7.43,19.34,19.34,0,0,1-3.37,5.69,13.47,13.47,0,0,1-5,3.47,17.42,17.42,0,0,1-6.81,1.25,11.61,11.61,0,0,1-4-.61V502.48a11.26,11.26,0,0,0,3.15.44q4,0,5.85-4.31t2.43-12.53l2-31.15h40.26V513h-11.87V464.37h-17.9Z"/><path class="cls-4" d="M1938,496h11.32a19.58,19.58,0,0,1-8.17,13.09q-6.9,5.09-16.84,5.08-12.76,0-20.07-8t-7.32-21.84q0-13.68,7.32-22t19.57-8.34q12,0,19.11,7.87t7.07,21.12V487h-41v.72q0,7.62,4.25,12.2c2.83,3.06,6.63,4.58,11.37,4.58a15.59,15.59,0,0,0,8.62-2.31A11.23,11.23,0,0,0,1938,496Zm-4.08-28.27a13.23,13.23,0,0,0-10.11-4.2,13.7,13.7,0,0,0-10.27,4.23,16.73,16.73,0,0,0-4.53,10.9h29A16.22,16.22,0,0,0,1933.9,467.69Z"/><path class="cls-5" d="M1983.76,482.21,2010.49,513h-15l-23-26.78h-.44V513h-11.88V454.93h11.88v24.85h.44l22.75-24.85h14.24Z"/><path class="cls-6" d="M2060.74,454.93v9.44h-18.22V513h-11.87V464.37h-18.23v-9.44Z"/><path class="cls-7" d="M2099.73,454q11.1,0,17.78,8.12t6.68,21.87q0,13.75-6.63,21.89T2100,514a21.12,21.12,0,0,1-11-2.82,18.8,18.8,0,0,1-7.32-7.73h-.28v28.77h-11.93V454.93H2081v10h.22a19.51,19.51,0,0,1,7.45-8A21,21,0,0,1,2099.73,454Zm-3.15,49.92a13.39,13.39,0,0,0,11.21-5.38q4.14-5.38,4.14-14.55t-4.14-14.52a14.1,14.1,0,0,0-22.26.05q-4.19,5.48-4.19,14.47t4.17,14.49A13.25,13.25,0,0,0,2096.58,503.91Z"/><path class="cls-8" d="M2179.47,506q-7.51,8.08-20,8.09T2139.37,506q-7.5-8.09-7.51-22.06t7.51-22q7.52-8.09,20.05-8.09t20,8.09q7.5,8.1,7.51,22T2179.47,506Zm-20-1.74a13.5,13.5,0,0,0,11.27-5.36q4.14-5.35,4.14-15t-4.17-14.91a14.47,14.47,0,0,0-22.48,0Q2144,474.42,2144,484t4.17,15A13.51,13.51,0,0,0,2159.42,504.3Z"/><path class="cls-9" d="M2235.35,513V487.73h-26.29V513h-11.87V454.93h11.87v23.42h26.29V454.93h11.87V513Z"/><path class="cls-10" d="M2298.25,513V487.73H2272V513h-11.87V454.93H2272v23.42h26.29V454.93h11.87V513Z"/><path class="cls-11" d="M2323,513V454.93h11.88v17.95H2346q10.1,0,16.09,5.44t6,14.6q0,9.22-6,14.66T2346,513Zm21.93-30.81h-10v21.43h10a11.33,11.33,0,0,0,8.2-3,11.35,11.35,0,0,0,0-15.54A11.41,11.41,0,0,0,2344.91,482.21ZM2374.73,513V454.93h11.81V513Z"/><path class="cls-12" d="M2437.9,496h11.32a19.62,19.62,0,0,1-8.17,13.09q-6.91,5.09-16.85,5.08-12.75,0-20.07-8t-7.32-21.84q0-13.68,7.32-22t19.58-8.34q12,0,19.1,7.87t7.07,21.12V487h-41v.72q0,7.62,4.25,12.2t11.38,4.58a15.55,15.55,0,0,0,8.61-2.31A11.2,11.2,0,0,0,2437.9,496Zm-4.09-28.27a13.19,13.19,0,0,0-10.1-4.2,13.66,13.66,0,0,0-10.27,4.23,16.63,16.63,0,0,0-4.53,10.9h29A16.12,16.12,0,0,0,2433.81,467.69Z"/><path class="cls-13" d="M1824.73,579.85v9.44H1806.5v48.65h-11.87V589.29h-18.22v-9.44Z"/><path class="cls-14" d="M1877.35,631q-7.51,8.1-20,8.09t-20-8.09q-7.52-8.09-7.51-22.06t7.51-22q7.52-8.1,20-8.09t20,8.09q7.51,8.08,7.51,22T1877.35,631Zm-20-1.74a13.48,13.48,0,0,0,11.26-5.35q4.14-5.36,4.14-15T1868.54,594a14.47,14.47,0,0,0-22.47,0q-4.17,5.37-4.17,14.91t4.17,15A13.49,13.49,0,0,0,1857.31,629.21Z"/><path class="cls-15" d="M1895.08,637.94V579.85h26.39q8.51,0,13.34,3.94a13.29,13.29,0,0,1,4.83,10.86,12.85,12.85,0,0,1-2.84,8.14,11.4,11.4,0,0,1-7,4.39v.44a14.67,14.67,0,0,1,9,4.45,12.89,12.89,0,0,1,3.42,9.14,15,15,0,0,1-5.49,12.2q-5.49,4.53-14.94,4.53Zm24-49.42h-12.2v15.24h11q10.11,0,10.11-7.73a6.85,6.85,0,0,0-2.32-5.55Q1923.34,588.51,1919,588.52Zm-.38,23.58h-11.82v17.17H1920c3.39,0,6-.73,7.73-2.18a7.77,7.77,0,0,0,2.65-6.38Q1930.36,612.1,1918.66,612.1Z"/><path class="cls-16" d="M1969.85,638.93q-8.56,0-13.95-4.86a16.21,16.21,0,0,1-5.38-12.64,14.72,14.72,0,0,1,5.63-12.12q5.64-4.5,16-5l15.9-.94v-4.48a9.6,9.6,0,0,0-3.09-7.59q-3.09-2.73-8.56-2.73a13.88,13.88,0,0,0-8.25,2.26,9.87,9.87,0,0,0-4,6.24h-11.26a17.42,17.42,0,0,1,7-13.14q6.45-5.08,17-5.08t16.82,5.19a17.14,17.14,0,0,1,6.27,13.91v40h-11.43v-9.55h-.28a18.55,18.55,0,0,1-7.54,7.67A21.42,21.42,0,0,1,1969.85,638.93Zm3.31-9.44a15.23,15.23,0,0,0,10.57-3.84,12.19,12.19,0,0,0,4.28-9.47V611.6l-14.3.88c-3.57.26-6.32,1.13-8.25,2.63a7.15,7.15,0,0,0-2.9,6,7.37,7.37,0,0,0,2.9,6.1A12,12,0,0,0,1973.16,629.49Z"/><path class="cls-17" d="M2042.74,578.91q11.1,0,17.78,8.12t6.68,21.86q0,13.75-6.63,21.9T2043,638.93a21.21,21.21,0,0,1-11-2.81,18.86,18.86,0,0,1-7.32-7.73h-.28v28.77h-11.92V579.85H2024v10h.22a19.54,19.54,0,0,1,7.45-8A20.91,20.91,0,0,1,2042.74,578.91Zm-3.15,49.92a13.4,13.4,0,0,0,11.21-5.39q4.14-5.37,4.14-14.55t-4.14-14.52a13.37,13.37,0,0,0-11.21-5.41,13.22,13.22,0,0,0-11,5.47q-4.2,5.46-4.2,14.46t4.17,14.5A13.25,13.25,0,0,0,2039.59,628.83Z"/><path class="cls-18" d="M2077.42,637.94V579.85h11.87v17.94h11.1q10.11,0,16.09,5.44t6,14.61q0,9.23-6,14.66t-16.09,5.44Zm21.92-30.81h-10.05v21.42h10.05a11.31,11.31,0,0,0,8.2-2.95,11.37,11.37,0,0,0,0-15.55A11.39,11.39,0,0,0,2099.34,607.13Zm29.82,30.81V579.85H2141v58.09Z"/><path class="cls-19" d="M256.43,305S315.86,132.53,346.1,44.37c12.06-35.13-33.7-60.68-57.28-32l-269.58,328c-45,54.77-6,137.21,64.84,137.21H196.5S137,650.22,106.77,738.41c-12,35.13,33.71,60.67,57.28,32l269.7-328.23c45-54.76,6-137.2-64.84-137.2Z"/><path class="cls-20" d="M48.4,305,19.24,340.43c-45,54.77-6,137.21,64.84,137.21H196.5L256.43,305Z"/><path class="cls-21" d="M164.06,770.38l269.7-328.23c45-54.77,6-137.2-64.84-137.2H256.43L196.51,477.63S137,650.21,106.77,738.41C94.72,773.54,140.48,799.08,164.06,770.38Z"/></g></g></svg>