<svg width="40" height="30" viewBox="0 0 40 30" fill="none" xmlns="http://www.w3.org/2000/svg">
<path d="M7.53722 29.8162V27.8311C7.54886 27.6641 7.52479 27.4966 7.46662 27.3397C7.40845 27.1827 7.31752 27.04 7.19989 26.9211C7.08226 26.8021 6.94064 26.7096 6.78446 26.6497C6.62829 26.5898 6.46116 26.564 6.29421 26.5739C6.07572 26.5596 5.8574 26.6043 5.66203 26.7032C5.46666 26.8021 5.30137 26.9517 5.18341 27.1363C5.0759 26.9572 4.92213 26.8104 4.73828 26.7114C4.55442 26.6125 4.3473 26.5649 4.13873 26.5739C3.95691 26.5647 3.77586 26.6032 3.6135 26.6856C3.45115 26.7681 3.31311 26.8915 3.21306 27.0437V26.6533H2.52539V29.8162H3.21964V28.0627C3.20463 27.9545 3.21375 27.8443 3.24635 27.74C3.27894 27.6358 3.3342 27.54 3.40817 27.4597C3.48213 27.3793 3.57295 27.3164 3.67411 27.2753C3.77527 27.2343 3.88426 27.2162 3.99325 27.2223C4.44946 27.2223 4.68091 27.5201 4.68091 28.0561V29.8162H5.37516V28.0627C5.36128 27.9547 5.37119 27.8449 5.4042 27.7412C5.43721 27.6374 5.49253 27.5421 5.56625 27.4621C5.63998 27.382 5.73033 27.319 5.83096 27.2776C5.93159 27.2362 6.04006 27.2173 6.14876 27.2223C6.61817 27.2223 6.84297 27.5201 6.84297 28.0561V29.8162H7.53722ZM17.8121 26.6533H16.6881V25.6938H15.9939V26.6533H15.3525V27.2819H15.9939V28.7244C15.9939 29.4589 16.2782 29.8957 17.0914 29.8957C17.3953 29.8966 17.6932 29.8117 17.951 29.6508L17.7527 29.0619C17.5683 29.172 17.359 29.2334 17.1444 29.2405C16.8005 29.2405 16.6881 29.0287 16.6881 28.7112V27.2819H17.8121V26.6533ZM23.6769 26.5739C23.5093 26.5689 23.3434 26.6093 23.1968 26.6908C23.0501 26.7724 22.9282 26.892 22.8438 27.037V26.6533H22.1628V29.8162H22.8504V28.0428C22.8504 27.5201 23.0752 27.2289 23.5249 27.2289C23.672 27.2269 23.818 27.2539 23.9546 27.3083L24.1662 26.6599C24.0092 26.6036 23.8437 26.5745 23.6769 26.5739ZM14.8104 26.9047C14.4211 26.6731 13.9736 26.5582 13.521 26.5739C12.721 26.5739 12.2053 26.9576 12.2053 27.5862C12.2053 28.1024 12.5887 28.42 13.2962 28.5193L13.6202 28.5656C13.997 28.6184 14.1756 28.7178 14.1756 28.8964C14.1756 29.1412 13.9243 29.2802 13.4549 29.2802C13.0773 29.2911 12.707 29.1746 12.4036 28.9493L12.0796 29.4853C12.4802 29.7653 12.9599 29.9091 13.4483 29.8957C14.3607 29.8957 14.8896 29.4655 14.8896 28.8633C14.8896 28.3075 14.4731 28.0163 13.7855 27.9171L13.4615 27.8708C13.164 27.8311 12.926 27.7716 12.926 27.5598C12.926 27.3282 13.1507 27.1892 13.5276 27.1892C13.8737 27.1945 14.2128 27.2878 14.5128 27.4605L14.8104 26.9047ZM33.2311 26.5739C33.0635 26.5689 32.8976 26.6093 32.751 26.6908C32.6043 26.7724 32.4824 26.892 32.398 27.037V26.6533H31.717V29.8162H32.4046V28.0428C32.4046 27.5201 32.6294 27.2289 33.079 27.2289C33.2261 27.2269 33.3722 27.2539 33.5089 27.3083L33.7204 26.6599C33.5634 26.6036 33.3979 26.5745 33.2311 26.5739ZM24.3711 28.2347C24.362 28.4575 24.3996 28.6798 24.4814 28.8872C24.5633 29.0946 24.6876 29.2826 24.8464 29.4391C25.0052 29.5955 25.195 29.717 25.4036 29.7956C25.6121 29.8742 25.8348 29.9083 26.0572 29.8957C26.4701 29.9164 26.8757 29.7819 27.1944 29.5184L26.8639 28.9626C26.6261 29.1439 26.3363 29.2437 26.0374 29.2471C25.7797 29.2315 25.5377 29.118 25.3607 28.9299C25.1838 28.7417 25.0853 28.4931 25.0853 28.2347C25.0853 27.9764 25.1838 27.7277 25.3607 27.5396C25.5377 27.3514 25.7797 27.238 26.0374 27.2223C26.3363 27.2257 26.6261 27.3255 26.8639 27.5069L27.1944 26.951C26.8757 26.6876 26.4701 26.5531 26.0572 26.5739C25.8348 26.5612 25.6121 26.5953 25.4036 26.6739C25.1951 26.7525 25.0053 26.874 24.8465 27.0304C24.6877 27.1868 24.5633 27.3748 24.4815 27.5822C24.3996 27.7896 24.362 28.0119 24.3711 28.2347ZM30.8112 28.2347V26.6533H30.1235V27.037C30.0062 26.8857 29.8543 26.7646 29.6806 26.684C29.5069 26.6035 29.3164 26.5657 29.1251 26.5739C28.699 26.5948 28.2973 26.7789 28.0031 27.0881C27.709 27.3973 27.5449 27.8078 27.5449 28.2348C27.5449 28.6617 27.709 29.0723 28.0031 29.3815C28.2973 29.6906 28.699 29.8747 29.1251 29.8957C29.3164 29.9038 29.5069 29.866 29.6806 29.7854C29.8543 29.7048 30.0062 29.5838 30.1235 29.4324V29.8162H30.8112V28.2347ZM28.2523 28.2347C28.263 28.048 28.328 27.8686 28.4394 27.7185C28.5507 27.5684 28.7035 27.4542 28.879 27.3899C29.0544 27.3257 29.2448 27.3143 29.4266 27.357C29.6085 27.3998 29.7739 27.4949 29.9024 27.6306C30.0309 27.7663 30.1169 27.9366 30.1498 28.1207C30.1827 28.3047 30.1611 28.4943 30.0876 28.6662C30.0141 28.8381 29.8919 28.9847 29.7362 29.0879C29.5805 29.1911 29.3979 29.2465 29.2111 29.2471C29.0802 29.2489 28.9503 29.2235 28.8297 29.1726C28.709 29.1216 28.6002 29.0462 28.5101 28.9511C28.4201 28.8559 28.3507 28.7432 28.3063 28.6199C28.2619 28.4966 28.2435 28.3654 28.2523 28.2347ZM19.9544 26.5739C19.5256 26.5964 19.1222 26.7844 18.8288 27.0982C18.5355 27.412 18.3749 27.8273 18.3809 28.257C18.3869 28.6867 18.5589 29.0974 18.8609 29.403C19.1629 29.7085 19.5714 29.885 20.0007 29.8957C20.4725 29.9122 20.9338 29.7544 21.2966 29.4523L20.9594 28.9428C20.6983 29.1522 20.3749 29.2686 20.0404 29.2736C19.8131 29.2927 19.5874 29.2226 19.4109 29.0781C19.2345 28.9336 19.1211 28.726 19.0949 28.4994H21.4421C21.4487 28.4134 21.4553 28.3274 21.4553 28.2347C21.4487 27.2488 20.8404 26.5739 19.9544 26.5739ZM19.9412 27.1892C20.1489 27.1852 20.3497 27.2637 20.4997 27.4076C20.6496 27.5515 20.7365 27.749 20.7412 27.9568H19.1015C19.1136 27.7445 19.2082 27.5453 19.3651 27.4018C19.522 27.2584 19.7288 27.1821 19.9412 27.1892ZM37.1917 28.2347V25.3828H36.504V27.037C36.3866 26.8857 36.2347 26.7646 36.0611 26.684C35.8874 26.6035 35.6969 26.5657 35.5056 26.5739C35.0795 26.5947 34.6778 26.7789 34.3836 27.088C34.0894 27.3972 33.9253 27.8078 33.9253 28.2348C33.9253 28.6617 34.0894 29.0723 34.3836 29.3815C34.6778 29.6907 35.0795 29.8748 35.5056 29.8957C35.6969 29.9038 35.8874 29.866 36.0611 29.7854C36.2348 29.7048 36.3866 29.5838 36.504 29.4324V29.8162H37.1917V28.2347ZM38.3379 29.3578C38.3806 29.3576 38.423 29.366 38.4623 29.3825C38.5002 29.3983 38.5347 29.4212 38.564 29.4499C38.593 29.4786 38.6163 29.5126 38.6324 29.5501C38.649 29.5886 38.6575 29.6301 38.6575 29.672C38.6575 29.714 38.649 29.7555 38.6324 29.794C38.6162 29.8313 38.5929 29.8652 38.564 29.8938C38.5346 29.9225 38.5001 29.9455 38.4623 29.9615C38.423 29.9784 38.3807 29.9869 38.3379 29.9866C38.275 29.9873 38.2133 29.9693 38.1605 29.9351C38.1078 29.9008 38.0662 29.8517 38.0411 29.794C38.0247 29.7555 38.0162 29.714 38.0162 29.672C38.0162 29.6301 38.0247 29.5886 38.0411 29.5501C38.0573 29.5127 38.0804 29.4787 38.1093 29.4499C38.1386 29.421 38.1732 29.3981 38.2113 29.3825C38.2515 29.3659 38.2945 29.3575 38.3379 29.3578ZM38.3379 29.9173C38.3705 29.9175 38.4028 29.911 38.4327 29.898C38.4614 29.8855 38.4875 29.8677 38.5096 29.8456C38.5553 29.7995 38.5809 29.7371 38.5809 29.6722C38.5809 29.6073 38.5553 29.545 38.5096 29.4988C38.4875 29.4767 38.4614 29.4591 38.4327 29.4469C38.4027 29.4341 38.3705 29.4277 38.3379 29.428C38.3048 29.4277 38.2719 29.4341 38.2413 29.4469C38.2121 29.4589 38.1856 29.4765 38.1632 29.4988C38.1175 29.5449 38.0919 29.6073 38.0919 29.6722C38.0919 29.7371 38.1175 29.7995 38.1632 29.8456C38.1856 29.8679 38.2122 29.8857 38.2413 29.898C38.2719 29.9109 38.3048 29.9175 38.3379 29.9173ZM38.3564 29.525C38.3873 29.523 38.418 29.5319 38.4431 29.5501C38.4531 29.5583 38.461 29.5688 38.4663 29.5806C38.4716 29.5925 38.474 29.6054 38.4735 29.6183C38.4738 29.6294 38.4718 29.6404 38.4677 29.6507C38.4635 29.661 38.4572 29.6703 38.4492 29.678C38.4301 29.695 38.4058 29.7051 38.3803 29.7069L38.4758 29.8171H38.4011L38.3126 29.7076H38.2841V29.8171H38.2217V29.525H38.3564ZM38.2841 29.5798V29.6576H38.3557C38.3694 29.6583 38.3831 29.6549 38.395 29.6479C38.3998 29.6447 38.4037 29.6403 38.4062 29.6351C38.4088 29.6299 38.4099 29.6241 38.4095 29.6183C38.4099 29.6126 38.4087 29.6069 38.4061 29.6019C38.4036 29.5968 38.3997 29.5925 38.395 29.5893C38.3831 29.5824 38.3694 29.5791 38.3557 29.5798H38.2841ZM34.6329 28.2347C34.6436 28.048 34.7086 27.8686 34.8199 27.7185C34.9313 27.5684 35.0841 27.4542 35.2595 27.39C35.435 27.3258 35.6253 27.3144 35.8072 27.3571C35.989 27.3999 36.1544 27.495 36.2829 27.6307C36.4114 27.7664 36.4973 27.9367 36.5303 28.1207C36.5632 28.3048 36.5415 28.4944 36.468 28.6663C36.3945 28.8381 36.2724 28.9847 36.1166 29.0879C35.9609 29.1911 35.7784 29.2465 35.5916 29.2471C35.4606 29.2489 35.3308 29.2235 35.2101 29.1725C35.0895 29.1216 34.9807 29.0462 34.8906 28.951C34.8006 28.8559 34.7312 28.7432 34.6868 28.6199C34.6424 28.4966 34.6241 28.3654 34.6329 28.2347ZM11.4118 28.2347V26.6533H10.7242V27.037C10.6068 26.8857 10.4549 26.7646 10.2812 26.684C10.1075 26.6035 9.91704 26.5657 9.72576 26.5739C9.29968 26.5948 8.89795 26.7789 8.60378 27.0881C8.30961 27.3973 8.14554 27.8078 8.14554 28.2348C8.14554 28.6617 8.30961 29.0723 8.60378 29.3815C8.89795 29.6906 9.29968 29.8747 9.72576 29.8957C9.91705 29.9038 10.1075 29.866 10.2812 29.7854C10.4549 29.7048 10.6068 29.5838 10.7242 29.4324V29.8162H11.4118V28.2347ZM8.85303 28.2347C8.86371 28.048 8.92874 27.8686 9.0401 27.7185C9.15145 27.5684 9.30427 27.4542 9.4797 27.39C9.65512 27.3258 9.8455 27.3144 10.0273 27.3571C10.2092 27.3999 10.3745 27.495 10.503 27.6307C10.6315 27.7664 10.7175 27.9367 10.7504 28.1208C10.7833 28.3048 10.7617 28.4944 10.6882 28.6663C10.6147 28.8381 10.4925 28.9847 10.3368 29.0879C10.181 29.1911 9.99852 29.2465 9.81173 29.2471C9.6808 29.2489 9.55092 29.2235 9.43028 29.1725C9.30965 29.1216 9.20087 29.0462 9.1108 28.951C9.02073 28.8559 8.95133 28.7432 8.90697 28.6199C8.8626 28.4966 8.84424 28.3654 8.85303 28.2347Z" fill="#231F20"/>
<path d="M24.9855 2.53711H14.5703V21.2682H24.9855V2.53711Z" fill="#FF5F00"/>
<path d="M15.2399 11.9124C15.2383 10.1085 15.6467 8.3278 16.4344 6.70521C17.222 5.08261 18.3682 3.66061 19.7862 2.54688C18.0302 1.16558 15.9214 0.306571 13.7007 0.068034C11.48 -0.170503 9.23703 0.221058 7.22817 1.19796C5.21931 2.17486 3.52562 3.69768 2.34067 5.59238C1.15573 7.48707 0.527344 9.67719 0.527344 11.9124C0.527344 14.1476 1.15573 16.3377 2.34067 18.2324C3.52562 20.1271 5.21931 21.6499 7.22817 22.6268C9.23703 23.6038 11.48 23.9953 13.7007 23.7568C15.9214 23.5182 18.0302 22.6592 19.7862 21.2779C18.3682 20.1642 17.222 18.7422 16.4344 17.1196C15.6467 15.497 15.2383 13.7163 15.2399 11.9124Z" fill="#EB001B"/>
<path d="M39.0375 11.9124C39.0376 14.1476 38.4093 16.3377 37.2244 18.2324C36.0396 20.1271 34.3459 21.6499 32.3371 22.6268C30.3283 23.6037 28.0854 23.9953 25.8647 23.7568C23.644 23.5182 21.5352 22.6592 19.7793 21.2779C21.196 20.1631 22.3413 18.7408 23.1288 17.1185C23.9164 15.4962 24.3255 13.716 24.3255 11.9124C24.3255 10.1087 23.9164 8.32865 23.1288 6.70631C22.3413 5.08397 21.196 3.66174 19.7793 2.54687C21.5352 1.16557 23.644 0.306566 25.8647 0.068032C28.0854 -0.170502 30.3283 0.221065 32.3371 1.19798C34.3459 2.17489 36.0396 3.69772 37.2244 5.59242C38.4093 7.48711 39.0376 9.67722 39.0375 11.9124Z" fill="#F79E1B"/>
<path d="M37.9187 19.2846V18.9012H38.0732V18.823H37.6797V18.9012H37.8343V19.2846H37.9187ZM38.6826 19.2846V18.8223H38.562L38.4233 19.1403L38.2845 18.8223H38.1638V19.2846H38.249V18.9359L38.3791 19.2366H38.4674L38.5975 18.9351V19.2846H38.6826Z" fill="#F79E1B"/>
</svg>
