<svg width="81" height="21" viewBox="0 0 81 21" fill="none" xmlns="http://www.w3.org/2000/svg">
<path d="M61.859 5.33594H57.5403C57.2863 5.33594 57.0322 5.58998 56.9052 5.84401L55.127 17.0217C55.127 17.2758 55.254 17.4028 55.508 17.4028H57.7944C58.0484 17.4028 58.1754 17.2758 58.1754 17.0217L58.6835 13.8462C58.6835 13.5922 58.9375 13.3382 59.3186 13.3382H60.7158C63.6372 13.3382 65.2885 11.9409 65.6696 9.14652C65.9236 8.00334 65.6696 6.98719 65.1615 6.35209C64.3994 5.717 63.2562 5.33594 61.859 5.33594ZM62.3671 9.52758C62.113 11.0518 60.9698 11.0518 59.8267 11.0518H59.0646L59.5726 8.13036C59.5726 8.00334 59.6996 7.87632 59.9537 7.87632H60.2077C60.9698 7.87632 61.732 7.87632 62.113 8.3844C62.3671 8.51142 62.3671 8.89248 62.3671 9.52758Z" fill="#139AD6"/>
<path d="M30.7398 5.33594H26.4212C26.1671 5.33594 25.9131 5.58998 25.7861 5.84401L24.0078 17.0217C24.0078 17.2758 24.1348 17.4028 24.3889 17.4028H26.4212C26.6752 17.4028 26.9293 17.1487 27.0563 16.8947L27.5644 13.8462C27.5644 13.5922 27.8184 13.3382 28.1995 13.3382H29.5967C32.5181 13.3382 34.1694 11.9409 34.5504 9.14652C34.8045 8.00334 34.5504 6.98719 34.0423 6.35209C33.2802 5.717 32.2641 5.33594 30.7398 5.33594ZM31.2479 9.52758C30.9939 11.0518 29.8507 11.0518 28.7075 11.0518H28.0724L28.5805 8.13036C28.5805 8.00334 28.7075 7.87632 28.9616 7.87632H29.2156C29.9777 7.87632 30.7398 7.87632 31.1209 8.3844C31.2479 8.51142 31.3749 8.89248 31.2479 9.52758Z" fill="#263B80"/>
<path d="M43.823 9.39955H41.7906C41.6636 9.39955 41.4096 9.52657 41.4096 9.65358L41.2826 10.2887L41.1555 10.0346C40.6475 9.39955 39.7583 9.14551 38.7422 9.14551C36.4558 9.14551 34.4235 10.9238 34.0425 13.3371C33.7884 14.6073 34.1695 15.7505 34.8046 16.5126C35.4397 17.2747 36.3288 17.5288 37.472 17.5288C39.3773 17.5288 40.3934 16.3856 40.3934 16.3856L40.2664 17.0207C40.2664 17.2747 40.3934 17.4018 40.6475 17.4018H42.5528C42.8068 17.4018 43.0608 17.1477 43.1879 16.8937L44.331 9.7806C44.204 9.65359 43.95 9.39955 43.823 9.39955ZM40.9015 13.4642C40.6475 14.6073 39.7583 15.4965 38.4881 15.4965C37.853 15.4965 37.345 15.2424 37.0909 14.9884C36.8369 14.6073 36.7099 14.0993 36.7099 13.4642C36.8369 12.321 37.853 11.4319 38.9962 11.4319C39.6313 11.4319 40.0124 11.6859 40.3934 11.9399C40.7745 12.321 40.9015 12.9561 40.9015 13.4642Z" fill="#263B80"/>
<path d="M74.8171 9.39955H72.7848C72.6578 9.39955 72.4037 9.52657 72.4037 9.65358L72.2767 10.2887L72.1497 10.0346C71.6416 9.39955 70.7525 9.14551 69.7363 9.14551C67.45 9.14551 65.4177 10.9238 65.0366 13.3371C64.7826 14.6073 65.1636 15.7505 65.7987 16.5126C66.4338 17.2747 67.323 17.5288 68.4661 17.5288C70.3714 17.5288 71.3876 16.3856 71.3876 16.3856L71.2605 17.0207C71.2605 17.2747 71.3876 17.4018 71.6416 17.4018H73.5469C73.8009 17.4018 74.055 17.1477 74.182 16.8937L75.3252 9.7806C75.1982 9.65359 75.0711 9.39955 74.8171 9.39955ZM71.8956 13.4642C71.6416 14.6073 70.7525 15.4965 69.4823 15.4965C68.8472 15.4965 68.3391 15.2424 68.0851 14.9884C67.831 14.6073 67.704 14.0993 67.704 13.4642C67.831 12.321 68.8472 11.4319 69.9904 11.4319C70.6255 11.4319 71.0065 11.6859 71.3876 11.9399C71.8956 12.321 72.0227 12.9561 71.8956 13.4642Z" fill="#139AD6"/>
<path d="M54.8742 9.40039H52.7149C52.4609 9.40039 52.3338 9.52741 52.2068 9.65443L49.4124 13.9731L48.1422 9.90847C48.0152 9.65443 47.8882 9.52741 47.5071 9.52741H45.4748C45.2208 9.52741 45.0938 9.78145 45.0938 10.0355L47.3801 16.7675L45.2208 19.816C45.0937 20.07 45.2208 20.4511 45.4748 20.4511H47.5071C47.7612 20.4511 47.8882 20.3241 48.0152 20.197L55.0013 10.1625C55.3823 9.78145 55.1283 9.40039 54.8742 9.40039Z" fill="#263B80"/>
<path d="M77.2275 5.71598L75.4492 17.1477C75.4492 17.4018 75.5762 17.5288 75.8303 17.5288H77.6085C77.8626 17.5288 78.1166 17.2747 78.2436 17.0207L80.0219 5.843C80.0219 5.58896 79.8949 5.46194 79.6409 5.46194H77.6085C77.4815 5.33492 77.3545 5.46194 77.2275 5.71598Z" fill="#139AD6"/>
<path d="M14.6072 1.52423C13.7181 0.508076 12.0668 0 9.78049 0H3.42952C3.04846 0 2.66741 0.381056 2.54039 0.762114L0 17.4016C0 17.7827 0.254039 18.0367 0.508077 18.0367H4.44568L5.46183 11.8128V12.0668C5.58885 11.6858 5.96991 11.3047 6.35097 11.3047H8.25626C11.9398 11.3047 14.7342 9.78049 15.6234 5.58885C15.6234 5.46183 15.6234 5.33481 15.6234 5.20779C15.4964 5.20779 15.4964 5.20779 15.6234 5.20779C15.7504 3.55654 15.4964 2.54039 14.6072 1.52423Z" fill="#263B80"/>
<path d="M15.4942 5.20801C15.4942 5.33503 15.4942 5.46205 15.4942 5.58907C14.6051 9.90772 11.8107 11.3049 8.12712 11.3049H6.22183C5.84077 11.3049 5.45971 11.686 5.33269 12.0671L4.0625 19.8152C4.0625 20.0693 4.18952 20.3233 4.57058 20.3233H7.87308C8.25414 20.3233 8.6352 20.0693 8.6352 19.6882V19.5612L9.27029 15.6236V15.3696C9.27029 14.9885 9.65135 14.7345 10.0324 14.7345H10.5405C13.716 14.7345 16.2564 13.4643 16.8915 9.65368C17.1455 8.12945 17.0185 6.73224 16.2564 5.8431C16.1293 5.58907 15.8753 5.33503 15.4942 5.20801Z" fill="#139AD6"/>
<path d="M14.6063 4.82637C14.4793 4.82637 14.3523 4.69935 14.2253 4.69935C14.0983 4.69935 13.9712 4.69935 13.8442 4.57233C13.3361 4.44531 12.8281 4.44531 12.193 4.44531H7.23921C7.11219 4.44531 6.98517 4.44531 6.85815 4.57233C6.60411 4.69935 6.47709 4.95339 6.47709 5.20743L5.46094 11.8124V12.0665C5.58796 11.6854 5.96901 11.3044 6.35007 11.3044H8.25536C11.9389 11.3044 14.7333 9.78012 15.6225 5.58849C15.6225 5.46147 15.6225 5.33445 15.7495 5.20743C15.4955 5.08041 15.3684 4.95339 15.1144 4.95339C14.7333 4.82637 14.7333 4.82637 14.6063 4.82637Z" fill="#232C65"/>
</svg>
