<svg width="17" height="16" viewBox="0 0 17 16" fill="none" xmlns="http://www.w3.org/2000/svg">
<path d="M15.7656 11L12.3594 9.53125C12.2344 9.5 12.1094 9.46875 11.9844 9.46875C11.6719 9.46875 11.3906 9.59375 11.2344 9.8125L9.85938 11.5C7.67188 10.4375 5.92188 8.6875 4.85938 6.5L6.54688 5.125C6.76562 4.96875 6.89062 4.6875 6.89062 4.375C6.89062 4.25 6.85938 4.125 6.82812 4L5.35938 0.59375C5.20312 0.25 4.85938 0 4.48438 0C4.39062 0 4.32812 0.03125 4.26562 0.03125L1.10938 0.78125C0.671875 0.875 0.359375 1.25 0.359375 1.71875C0.359375 9.625 6.76562 16 14.6406 16C15.1094 16 15.4844 15.6875 15.6094 15.25L16.3281 12.0938C16.3281 12.0312 16.3281 11.9688 16.3281 11.875C16.3281 11.5 16.1094 11.1562 15.7656 11ZM14.6094 15C7.29688 15 1.35938 9.0625 1.35938 1.75L4.45312 1.03125L5.89062 4.375L3.60938 6.25C5.14062 9.46875 6.89062 11.2188 10.1406 12.75L11.9844 10.4688L15.3281 11.9062L14.6094 15Z" fill="#ffcb66"/>
</svg>
