<svg width="25" height="25" viewBox="0 0 25 25" fill="none" xmlns="http://www.w3.org/2000/svg">
<path d="M24.2188 12.625C24.2188 5.93555 18.7988 0.515625 12.1094 0.515625C5.41992 0.515625 0 5.93555 0 12.625C0 17.8008 3.17383 22.1465 7.66602 23.9043C7.56836 22.9766 7.4707 21.5117 7.71484 20.4375C7.95898 19.5098 9.13086 14.4316 9.13086 14.4316C9.13086 14.4316 8.78906 13.6992 8.78906 12.625C8.78906 10.9648 9.76562 9.69531 10.9863 9.69531C12.0117 9.69531 12.5 10.4766 12.5 11.4043C12.5 12.4297 11.8164 13.9922 11.4746 15.457C11.2305 16.6289 12.1094 17.6055 13.2812 17.6055C15.4297 17.6055 17.0898 15.3594 17.0898 12.0879C17.0898 9.1582 14.9902 7.15625 12.0605 7.15625C8.59375 7.15625 6.5918 9.74414 6.5918 12.3809C6.5918 13.4551 6.98242 14.5781 7.4707 15.1641C7.56836 15.2617 7.56836 15.4082 7.56836 15.5059C7.4707 15.8965 7.22656 16.7266 7.22656 16.873C7.17773 17.1172 7.03125 17.166 6.78711 17.0684C5.27344 16.3359 4.3457 14.1387 4.3457 12.332C4.3457 8.52344 7.12891 5.00781 12.3535 5.00781C16.5527 5.00781 19.8242 8.03516 19.8242 12.0391C19.8242 16.1895 17.1875 19.5586 13.5254 19.5586C12.3047 19.5586 11.1328 18.9238 10.7422 18.1426C10.7422 18.1426 10.1562 20.4863 10.0098 21.0234C9.7168 22.0977 8.98438 23.416 8.49609 24.1973C9.61914 24.5879 10.8398 24.7344 12.1094 24.7344C18.7988 24.7344 24.2188 19.3145 24.2188 12.625Z" fill="black"/>
</svg>
