<svg width="17" height="16" viewBox="0 0 17 16" fill="none" xmlns="http://www.w3.org/2000/svg">
<path d="M8.35938 10.625C7.85938 10.625 7.48438 11.0312 7.48438 11.5C7.48438 12 7.85938 12.375 8.35938 12.375C8.82812 12.375 9.23438 12 9.23438 11.5C9.23438 11.0312 8.82812 10.625 8.35938 10.625ZM8.57812 9.875C8.79688 9.875 8.95312 9.71875 8.95312 9.5C8.95312 8.15625 11.3906 8.25 11.3906 6.15625C11.3906 4.5625 9.95312 3.625 8.32812 3.625C6.92188 3.625 6.14062 4.1875 5.48438 5.03125C5.35938 5.21875 5.39062 5.4375 5.57812 5.5625L5.98438 5.875C6.14062 5.96875 6.35938 5.9375 6.48438 5.78125C6.95312 5.1875 7.42188 4.875 8.32812 4.875C9.57812 4.875 10.1406 5.53125 10.1406 6.15625C10.1406 7.5 7.70312 7.3125 7.70312 9.5C7.70312 9.71875 7.89062 9.875 8.07812 9.875H8.57812ZM8.35938 1.25C12.0469 1.25 15.1094 4.28125 15.1094 8C15.1094 11.75 12.0781 14.75 8.35938 14.75C4.60938 14.75 1.60938 11.75 1.60938 8C1.60938 4.28125 4.60938 1.25 8.35938 1.25ZM8.35938 0.25C4.07812 0.25 0.609375 3.75 0.609375 8C0.609375 12.2812 4.07812 15.75 8.35938 15.75C12.6094 15.75 16.1094 12.2812 16.1094 8C16.1094 3.75 12.6094 0.25 8.35938 0.25Z" fill="black"/>
</svg>
