<svg width="68" height="21" viewBox="0 0 68 21" fill="none" xmlns="http://www.w3.org/2000/svg">
<path d="M25.2793 19.9153L28.7056 0.642578H34.0591L30.7399 19.9153H25.2793Z" fill="#3C58BF"/>
<path d="M25.2793 19.9153L29.6692 0.642578H34.0591L30.7399 19.9153H25.2793Z" fill="#293688"/>
<path d="M50.1162 0.856563C49.0455 0.428281 47.3323 0 45.1909 0C39.8374 0 35.9829 2.67676 35.9829 6.5313C35.9829 9.4222 38.6596 10.9212 40.801 11.8848C42.9424 12.8485 43.5849 13.4909 43.5849 14.3474C43.5849 15.6323 41.8717 16.2747 40.3727 16.2747C38.2313 16.2747 37.0536 15.9535 35.2334 15.204L34.4839 14.8828L33.7344 19.2727C35.0192 19.808 37.3748 20.3434 39.8374 20.3434C45.5121 20.3434 49.2596 17.6666 49.2596 13.598C49.2596 11.3495 47.8677 9.63634 44.6556 8.24443C42.7283 7.28079 41.5505 6.74544 41.5505 5.78181C41.5505 4.92524 42.5142 4.06868 44.6556 4.06868C46.4758 4.06868 47.7606 4.38989 48.7243 4.81817L49.2596 5.03231L50.1162 0.856563Z" fill="#3C58BF"/>
<path d="M50.1162 0.856563C49.0455 0.428281 47.3323 0 45.1909 0C39.8374 0 36.9465 2.67676 36.9465 6.5313C36.9465 9.4222 38.6596 10.9212 40.801 11.8848C42.9424 12.8485 43.5849 13.4909 43.5849 14.3474C43.5849 15.6323 41.8717 16.2747 40.3727 16.2747C38.2313 16.2747 37.0536 15.9535 35.2334 15.204L34.4839 14.8828L33.7344 19.2727C35.0192 19.808 37.3748 20.3434 39.8374 20.3434C45.5121 20.3434 49.2596 17.6666 49.2596 13.598C49.2596 11.3495 47.8677 9.63634 44.6556 8.24443C42.7283 7.28079 41.5505 6.74544 41.5505 5.78181C41.5505 4.92524 42.5142 4.06868 44.6556 4.06868C46.4758 4.06868 47.7606 4.38989 48.7243 4.81817L49.2596 5.03231L50.1162 0.856563Z" fill="#293688"/>
<path d="M59.3258 0.642578C58.041 0.642578 57.0774 0.74965 56.542 2.0345L48.5117 19.9153H54.2935L55.3642 16.7032H62.2167L62.8592 19.9153H67.9986L63.5016 0.642578H59.3258ZM56.8632 13.491C57.1844 12.5274 59.0046 7.8163 59.0046 7.8163C59.0046 7.8163 59.4329 6.63853 59.7541 5.88904L60.0753 7.70923C60.0753 7.70923 61.146 12.5274 61.3602 13.5981H56.8632V13.491Z" fill="#3C58BF"/>
<path d="M60.6107 0.642578C59.3258 0.642578 58.3622 0.74965 57.8269 2.0345L48.5117 19.9153H54.2935L55.3642 16.7032H62.2167L62.8592 19.9153H67.9986L63.5016 0.642578H60.6107ZM56.8632 13.491C57.2915 12.4203 59.0046 7.8163 59.0046 7.8163C59.0046 7.8163 59.4329 6.63853 59.7541 5.88904L60.0753 7.70923C60.0753 7.70923 61.146 12.5274 61.3602 13.5981H56.8632V13.491Z" fill="#293688"/>
<path d="M15.4287 14.1328L14.8934 11.349C13.9297 8.13689 10.8247 4.60356 7.39844 2.89043L12.2166 20.0217H17.9984L26.6711 0.749023H20.8893L15.4287 14.1328Z" fill="#3C58BF"/>
<path d="M15.4287 14.1328L14.8934 11.349C13.9297 8.13689 10.8247 4.60356 7.39844 2.89043L12.2166 20.0217H17.9984L26.6711 0.749023H21.96L15.4287 14.1328Z" fill="#293688"/>
<path d="M0.544922 0.642578L1.50856 0.85672C8.36107 2.46278 13.0722 6.53146 14.8924 11.3496L12.9651 2.24864C12.6439 0.96379 11.6803 0.642578 10.5025 0.642578H0.544922Z" fill="#FFBC00"/>
<path d="M0.544922 0.642578C7.39744 2.24864 13.0722 6.42439 14.8924 11.2426L13.0722 3.64055C12.751 2.35571 11.6803 1.60621 10.5025 1.60621L0.544922 0.642578Z" fill="#F7981D"/>
<path d="M0.544922 0.642578C7.39744 2.24864 13.0722 6.42439 14.8924 11.2426L13.6075 7.06681C13.2863 5.78196 12.858 4.49712 11.359 3.96177L0.544922 0.642578Z" fill="#ED7C00"/>
<path d="M20.7807 13.4912L17.1403 9.85084L15.4271 13.9195L14.9988 11.2428C14.0352 8.03064 10.9302 4.49731 7.50391 2.78418L12.3221 19.9155H18.1039L20.7807 13.4912Z" fill="#051244"/>
<path d="M30.7379 19.9152L26.1339 15.2041L25.2773 19.9152H30.7379Z" fill="#051244"/>
<path d="M43.0515 13.2773C43.4797 13.7056 43.6939 14.0268 43.5868 14.4551C43.5868 15.74 41.8737 16.3824 40.3747 16.3824C38.2333 16.3824 37.0555 16.0612 35.2353 15.3117L34.4858 14.9905L33.7363 19.3804C35.0212 19.9157 37.3767 20.4511 39.8393 20.4511C43.2656 20.4511 46.0494 19.4874 47.6555 17.7743L43.0515 13.2773Z" fill="#051244"/>
<path d="M49.2617 19.9159H54.294L55.3647 16.7038H62.2173L62.8597 19.9159H67.9991L66.1789 12.0997L59.7546 5.88965L60.0758 7.60278C60.0758 7.60278 61.1465 12.4209 61.3607 13.4917H56.8637C57.292 12.4209 59.0051 7.81692 59.0051 7.81692C59.0051 7.81692 59.4334 6.63914 59.7546 5.88965" fill="#051244"/>
</svg>
