<svg width="24" height="15" viewBox="0 0 24 15" fill="none" xmlns="http://www.w3.org/2000/svg">
<path d="M23.418 1.82031C23.5469 1.30469 23.418 0.875 22.6445 0.875H20.1094C19.4648 0.875 19.1641 1.21875 18.9922 1.60547C18.9922 1.60547 17.7031 4.74219 15.8984 6.80469C15.2969 7.36328 15.0391 7.57812 14.6953 7.57812C14.5664 7.57812 14.3086 7.36328 14.3086 6.84766V1.82031C14.3086 1.17578 14.1367 0.875 13.5781 0.875H9.625C9.19531 0.875 8.98047 1.17578 8.98047 1.47656C8.98047 2.07812 9.88281 2.20703 9.96875 3.92578V7.66406C9.96875 8.48047 9.83984 8.65234 9.49609 8.65234C8.63672 8.65234 6.57422 5.47266 5.32812 1.86328C5.07031 1.17578 4.8125 0.875 4.16797 0.875H1.63281C0.945312 0.875 0.773438 1.21875 0.773438 1.60547C0.773438 2.29297 1.63281 5.60156 4.76953 10.0273C6.875 13.0352 9.83984 14.625 12.5039 14.625C14.0938 14.625 14.3086 14.2812 14.3086 13.6797C14.3086 10.8008 14.1797 10.5 14.9531 10.5C15.3398 10.5 15.9844 10.7148 17.4883 12.1758C19.207 13.8945 19.5078 14.625 20.4531 14.625H22.9883C23.7188 14.625 24.0625 14.2812 23.8477 13.5508C23.375 12.0898 20.1523 8.99609 19.9805 8.78125C19.5938 8.30859 19.7227 8.09375 19.9805 7.66406C19.9805 7.66406 23.0742 3.28125 23.418 1.82031Z" fill="black"/>
</svg>
