<svg xmlns="http://www.w3.org/2000/svg" viewBox="0 0 31.39 31.36"><defs><style>.cls-1{fill:#eee;}.cls-2{fill:#fff;}</style></defs><g id="Слой_2" data-name="Слой 2"><g id="Слой_1-2" data-name="Слой 1"><ellipse class="cls-1" cx="15.69" cy="15.68" rx="15.69" ry="15.68"/><path class="cls-2" d="M4.11,26.25l1.22-.34c2-.55,4-1.11,6-1.64.35-.09.6-.24.65-.63.15-1.11.34-2.21.45-3.32a3,3,0,0,0-.22-1c-.17-.61-.35-1.22-.53-1.83,0-.13-.06-.27-.12-.56l-.44.94a5.72,5.72,0,0,1-.62-.92c-.34-.83-.62-1.69-.92-2.53,0-.12-.12-.26-.09-.37a2,2,0,0,1,.32-.94c.1-.11.55.1.83.19.09,0,.17.11.39.26a15.5,15.5,0,0,1-.34-1.67,10.7,10.7,0,0,1-.06-2.19,3.32,3.32,0,0,0-.33-2.16,4.29,4.29,0,0,0,2.06-1.67A3.16,3.16,0,0,1,15,4.6a13.21,13.21,0,0,0,5.42-.69L19.81,6l2.12.31-1.26.71,1.77.77c-.2.18-.55.35-.57.55s.22.52.38.84l-.7,0a2,2,0,0,0,.27,2.11,2.09,2.09,0,0,0-.61,1.91c.07,0,.12,0,.16,0,.62-.25.93-.09.88.6a7.24,7.24,0,0,1-1.32,3.85s-.09.05-.18.11l-.38-.69a7.2,7.2,0,0,0-.19.7,6.82,6.82,0,0,1-3.1,4.86,2.82,2.82,0,0,1-3-.64l-.43-.57c-.61,1.79,0,2.54,1.52,3a5,5,0,0,0,1.8.13,7,7,0,0,1,4.86,1.33c1.12.78,2.31,1.46,3.49,2.2C19.8,32.74,9.85,32.69,4.11,26.25Z"/></g></g></svg>