<svg xmlns="http://www.w3.org/2000/svg" viewBox="0 0 2035.62 2500"><g id="Слой_2" data-name="Слой 2"><g id="Слой_1-2" data-name="Слой 1"><path d="M1700.09,1328.17C1703.6,1706.51,2032,1832.4,2035.62,1834c-2.77,8.87-52.47,179.41-173,355.56-104.2,152.3-212.34,304-382.7,307.18-167.39,3.08-221.22-99.27-412.6-99.27s-251.13,96.13-409.59,102.35c-164.44,6.23-289.66-164.68-394.72-316.42C48.31,1873-115.76,1306.35,104.54,923.83c109.44-190,305-310.26,517.3-313.34,161.48-3.08,313.89,108.63,412.6,108.63S1318.31,584.78,1513,604.51c81.51,3.39,310.33,32.92,457.24,248-11.83,7.34-273,159.38-270.17,475.68m-314.6-929c87.3-105.67,146.06-252.79,130-399.16-125.84,5.06-278,83.86-368.27,189.47C1066.36,283,995.51,432.71,1014.63,576.18c140.26,10.85,283.55-71.27,370.86-177"/></g></g></svg>