<svg xmlns="http://www.w3.org/2000/svg" viewBox="0 0 223.71 54.82"><defs><style>.cls-1{fill:#1f1b20;}</style></defs><g id="Слой_2" data-name="Слой 2"><g id="Слой_1-2" data-name="Слой 1"><g id="Layer_1"><g id="_2359904421376" data-name=" 2359904421376"><path class="cls-1" d="M12.05,25.17H9.84a9.72,9.72,0,0,1-7-2.61A10.13,10.13,0,0,1,0,15.31V3.23A3,3,0,0,1,1,1,3.09,3.09,0,0,1,3.23,0,3.08,3.08,0,0,1,5.56,1a3.07,3.07,0,0,1,1,2.27V15.31a5.85,5.85,0,0,0,.37,2,3,3,0,0,0,2.72,1.3H31.58a9.6,9.6,0,0,1,7,2.61,10.15,10.15,0,0,1,2.86,7.26v23.1a3.07,3.07,0,0,1-1,2.27,3.12,3.12,0,0,1-2.24,1,3.24,3.24,0,0,1-2.35-1,3.08,3.08,0,0,1-1-2.27V28.49a6.6,6.6,0,0,0-.36-2,3,3,0,0,0-2.73-1.33Z"/><path class="cls-1" d="M6.55,41.7v9.89a3.16,3.16,0,0,1-1,2.27,3.1,3.1,0,0,1-2.26,1,3.14,3.14,0,0,1-2.36-1,3.07,3.07,0,0,1-1-2.27V32.46a3.07,3.07,0,0,1,1-2.27,3,3,0,0,1,2.27-1,3.15,3.15,0,0,1,2.35,1,3.16,3.16,0,0,1,1,2.27Z"/><path class="cls-1" d="M216.31,25.17h4.17a3,3,0,0,0,2.27-1,3.14,3.14,0,0,0,1-2.35,3.3,3.3,0,0,0-3.23-3.24H201.32a9.81,9.81,0,0,0-7.06,2.7,9.7,9.7,0,0,0-2.78,7.17v23.1a3,3,0,0,0,1,2.27,3.14,3.14,0,0,0,2.36,1A3.3,3.3,0,0,0,198,51.59V28.49c0-2.21,1.05-3.32,3.2-3.32Z"/><path class="cls-1" d="M103.69,43v8.62a3.07,3.07,0,0,1-1,2.27,3,3,0,0,1-2.27,1,3.09,3.09,0,0,1-2.32-1,3,3,0,0,1-1-2.27V32.46a3,3,0,0,1,1-2.27,3,3,0,0,1,2.23-1,3.14,3.14,0,0,1,2.36,1,3.07,3.07,0,0,1,1,2.27Z"/><path class="cls-1" d="M104.57,25.17h-4.2a3,3,0,0,1-2.23-1,3.11,3.11,0,0,1-1-2.35,3.32,3.32,0,0,1,3.2-3.24h25.49a9.82,9.82,0,0,1,7.06,2.7,9.69,9.69,0,0,1,2.77,7.17v23.1a3.07,3.07,0,0,1-1,2.27,3.24,3.24,0,0,1-2.35,1,3.24,3.24,0,0,1-3.21-3.23V28.49c0-2.21-1.07-3.32-3.23-3.32Z"/><path class="cls-1" d="M61.09,54.82H58.28a9.88,9.88,0,0,1-7.2-2.89,9.57,9.57,0,0,1-2.61-7V28.49a9.9,9.9,0,0,1,2.16-6.44,9.07,9.07,0,0,1,7.57-3.43H80.31a10,10,0,0,1,7.22,2.89,9.67,9.67,0,0,1,2.61,7V45A9.85,9.85,0,0,1,88,51.39a9.32,9.32,0,0,1-7.65,3.43H61.09ZM55,41.33v3.83a2.94,2.94,0,0,0,1.31,2.72,5.94,5.94,0,0,0,2,.39H80.42a3,3,0,0,0,2.81-1.33,5.77,5.77,0,0,0,.36-2V28.29a2.89,2.89,0,0,0-1.3-2.72,5.63,5.63,0,0,0-2-.4H58.08a3,3,0,0,0-2.72,1.33,5.81,5.81,0,0,0-.37,2V41.33Z"/><path class="cls-1" d="M155.4,54.82h-2.78a9.87,9.87,0,0,1-7.23-2.89,9.57,9.57,0,0,1-2.61-7V28.49a9.9,9.9,0,0,1,2.16-6.44,9.09,9.09,0,0,1,7.56-3.43h22.11a10,10,0,0,1,7.23,2.89,9.67,9.67,0,0,1,2.61,7V45a9.85,9.85,0,0,1-2.18,6.38,9.32,9.32,0,0,1-7.66,3.43H155.4Zm-6.1-13.49v3.83a3,3,0,0,0,1.3,2.72,6.06,6.06,0,0,0,2,.39h22.11a3,3,0,0,0,2.8-1.33,5.57,5.57,0,0,0,.37-2V28.29a2.93,2.93,0,0,0-1.27-2.72,5.93,5.93,0,0,0-2-.4H152.39a3,3,0,0,0-2.72,1.33,5.58,5.58,0,0,0-.37,2V41.33Z"/></g></g></g></g></svg>