<svg xmlns="http://www.w3.org/2000/svg" viewBox="0 0 481.44 118.04"><g id="Слой_2" data-name="Слой 2"><g id="svg8"><g id="layer2"><path id="path826" d="M179.16,117.92c-10.19-1.18-18.42-4.94-25-11.44-8.18-8-12.52-18.86-12.52-31.24,0-24.88,17.91-43.12,42.29-43.08a42,42,0,0,1,18.5,4.34,40.25,40.25,0,0,1,8,5.31,9.58,9.58,0,0,0,1.4,1.15,37.47,37.47,0,0,0,.15-4.68V33.6h10.56v83.28H211.92v-9.64l-1,.8c-7.07,5.87-13.52,8.73-22.06,9.79a73.74,73.74,0,0,1-9.73.09Zm9.74-11c12.76-2.14,21.61-11.16,24.14-24.6a56.7,56.7,0,0,0,0-14A33.83,33.83,0,0,0,210,58.92c-4.39-9-12.14-14.38-22.45-15.74a36.94,36.94,0,0,0-12.2.71,30.06,30.06,0,0,0-21.1,19.83c-1.45,4.18-1.74,6.12-1.74,11.52,0,4.15.08,5.14.56,7.3,2.89,12.92,12.16,22.13,24.5,24.37a46.1,46.1,0,0,0,11.32,0ZM87.06,117.59a42.39,42.39,0,0,1-19.15-6.73,45.89,45.89,0,0,1-10.12-10.18c-5.19-7.83-7.69-17.22-7.32-27.6a44.16,44.16,0,0,1,8.06-24.72,48.16,48.16,0,0,1,4.23-4.81A39.09,39.09,0,0,1,83.43,32.63a61.19,61.19,0,0,1,14.14-.48c15.84,2,27.7,12.6,31.78,28.41A51.51,51.51,0,0,1,131,72.42l.15,4.14h-70L61.29,79a30.76,30.76,0,0,0,16.53,25.52,29.55,29.55,0,0,0,14.12,3.25c9.21,0,16.17-2.83,22-9a52.92,52.92,0,0,0,5.28-7.09c.07-.15,9.21,5.84,9.21,6,0,.58-3.74,5.56-5.81,7.72-7.63,8-17.09,11.94-29.35,12.23-2.24.06-5,0-6.18-.12Zm33.06-51.41c-2-12.51-10.53-21.58-22.56-24a43.23,43.23,0,0,0-11.64.11,30.91,30.91,0,0,0-15.33,8,32.23,32.23,0,0,0-9,16.27l-.16.66h58.85Zm317.52,51.39c-18.39-1.71-32-14.17-35.74-32.61-2.51-12.55-.18-25.63,6.3-35.31q9.32-13.89,26.5-17.18a68.73,68.73,0,0,1,15.9,0A36.67,36.67,0,0,1,469.81,42.6c7.58,7.56,11.63,18.25,11.63,30.71v3.25l-34.86.06-34.86.06.06,1.92a31.42,31.42,0,0,0,9.44,20.87,29.79,29.79,0,0,0,15.78,8,44.53,44.53,0,0,0,11.36,0c8.53-1.51,14.71-5.7,20-13.57a9.07,9.07,0,0,1,1.57-2c.29.08,8.46,5.34,8.81,5.67s-1.88,3.75-4.51,6.81c-8.41,9.78-21.79,14.62-36.58,13.24Zm33-51a17.18,17.18,0,0,0-.47-2.6c-2.88-12-11.38-20-23.17-21.86a32.56,32.56,0,0,0-14.4,1.28,30.71,30.71,0,0,0-20.05,21.48c-.26,1-.47,2-.47,2.1s8.42.26,29.28.26h29.28v-.66ZM0,75.12V33.36H49.92V43.2l-19.62.06-19.62.06L10.62,80.1l-.06,36.78H0Zm241-16.8V0h10.8V116.64H241ZM270.24,75V33.36H280.8V44.28l.89-1.08a28.79,28.79,0,0,1,9.39-7.78,29.28,29.28,0,0,1,12.74-3.17,29.83,29.83,0,0,1,15.24,2.9C324,37.56,327.53,41,330.86,46.7c.23.39.37.28,1.23-1a31,31,0,0,1,19.75-12.86,47.78,47.78,0,0,1,14-.14,27.28,27.28,0,0,1,14.49,7.48c4.11,4.11,6.64,9.07,8.2,16.06l.64,2.91.08,28.74.08,28.74H378.72V91c0-16-.09-26.59-.25-28.14-1-9.86-6.09-17-14.06-19.63a22.79,22.79,0,0,0-9.71-1c-10.28,1.12-16.93,6.68-19.25,16.11-.49,2-.5,2.59-.58,30.18l-.09,28.14H324.24V91.47c0-15-.1-26.38-.24-28.19-1-12.09-7.63-19.76-18.24-21.05-9.68-1.18-19.72,4.47-23.37,13.15-1.53,3.62-1.44,1.74-1.53,32.88l-.08,28.38H270.24V75Z"/></g></g></g></svg>