<svg xmlns="http://www.w3.org/2000/svg" viewBox="0 0 2279.45 758.79"><defs><style>.cls-1{fill:#2360a5;fill-rule:evenodd;}</style></defs><g id="Слой_2" data-name="Слой 2"><g id="Слой_1-2" data-name="Слой 1"><path class="cls-1" d="M1993.41,464.74c193.5-94.7,300.3-202.5,284.5-291.8-33.2-187.6-601.9-217.8-1188.7-113.7-268.6,47.7-525.4,119.3-699.3,190.3a137.43,137.43,0,0,1,15.7-.2c75.2,2.1,70.6,48.8,70.6,48.8l.1,28.5h-59.9v-19.4c0-13.7-16.7-14.7-16.7-14.7-12.8,0-15.8,8.7-15.8,8.7-7.1,13.3,5,24.7,5,24.7,6.2,6.9,37.3,21.3,37.3,21.3,10.1,3.9,26.4,14,26.4,14,30.5,18.3,27.7,53.2,27.7,53.2v22.9c-3.7,56.8-82,55.2-82,55.2-82,0-80.3-53.8-80.3-53.8v-28.1h63.8V430c0,16.5,15.9,17.2,15.9,17.2,17.4.7,18.9-16.2,18.9-16.2,2.4-16.4-15.7-26.7-15.7-26.7-16-8.3-31.8-16.7-47.7-25.2-14.7-9.6-20.6-18.3-20.6-18.3-10.5-13.3-9.8-33.9-9.8-33.9V309c0-24.7,6.7-31.8,6.7-31.8.3-.5.6-1.1.9-1.6-214.4,99.1-345.6,213.9-329,308.3,33.7,191.5,570,216.6,1200.8,119.5,290.4-44.7,543.2-127.1,734.5-212.3-1.4.1-2.8.1-4.2.1,0,0-77.3,6.3-79.1-56.1V314.64s-9.6-66.4,77-66.4c0,0,56.4-1.8,71.3,31.6,0,0,7.3,8.9,5.4,45.9H1947v-18.9s-.1-15.3-15.7-15.3c0,0-16.3.7-16.3,13.5v124.7s-.7,16.7,17.7,16.7c0,0,15-.3,15-17.9v-36h-16.4v-33.6h77.2v70.8s-.2,14.9-6.4,23.6C2002,453.34,1995.81,462.94,1993.41,464.74Zm-219.9,20.2h-70.8l-63.1-139.2h-2.7l3.6,139.2h-59.4V257.24H1654l60.9,138.1h2.6l-4.3-138.1h60.1l.2,227.7Zm-372.1-56.6c0,19.3,18.3,18.3,18.3,18.3,17.4,0,16.5-18.8,16.5-18.8V256.24h63.6v173.7c0,62.6-79.2,61.6-79.2,61.6-91.2,0-84.5-64.6-84.5-64.6V256.24h65.1Zm-200-101.6v-19.4c0-13.8-16.7-14.7-16.7-14.7-12.8,0-15.8,8.7-15.8,8.7-7.1,13.3,5.1,24.7,5.1,24.7,6.2,6.9,37.3,21.3,37.3,21.3,10.1,3.9,26.3,14,26.3,14,30.5,18.3,27.7,53.2,27.7,53.2v22.9c-3.7,56.8-82,55.2-82,55.2-82.1,0-80.3-53.8-80.3-53.8v-28.1h63.9v19.4c0,16.5,15.9,17.2,15.9,17.2,17.4.7,18.9-16.2,18.9-16.2,2.4-16.4-15.7-26.7-15.7-26.7-16-8.3-31.8-16.7-47.7-25.2-14.7-9.6-20.6-18.3-20.6-18.3-10.5-13.3-9.9-33.9-9.9-33.9v-17.9c0-24.7,6.7-31.8,6.7-31.8,17-31.9,76.1-28,76.1-28,75.2,2.1,70.6,48.8,70.6,48.8l.1,28.5h-59.9ZM887,257.24l19.2,124.6h4.7L931,257.24h99.1l6.4,227.6h-59.6l-1.4-171.5h-4.1l-31,171.4h-62.3l-31.4-171.5H842l-.7,171.5h-59.2l5-227.7H887Zm-232.5,227.4-23.3-176.5H626l-23.4,176.5h-63.8L578.21,257h100.7l39.4,227.6Z"/></g></g></svg>