<svg xmlns="http://www.w3.org/2000/svg" viewBox="0 0 2391.33 2380.78"><defs><style>.cls-1{fill:#f57921;}.cls-2{fill:#faf9f5;}</style></defs><g id="Слой_2" data-name="Слой 2"><g id="Слой_1-2" data-name="Слой 1"><path class="cls-1" d="M0,0H2391.33V2380.78H0Z"/><path class="cls-2" d="M1638.85,1826.23V914.92C1638.85,707.86,1471,540,1264,540H210.29a14.64,14.64,0,0,0-14.7,14.58V1826.23a14.62,14.62,0,0,0,14.7,14.55H491.75a14.66,14.66,0,0,0,14.7-14.63h0V828a14.69,14.69,0,0,1,14.7-14.67h605.26c113.64,0,205.83,92.12,205.83,205.79V1826.1a14.65,14.65,0,0,0,14.65,14.65h277.32a14.63,14.63,0,0,0,14.65-14.56"/><path class="cls-2" d="M1070.48,1826.14a14.62,14.62,0,0,1-14.58,14.65H774.44a14.67,14.67,0,0,1-14.71-14.65V1061.29a14.69,14.69,0,0,1,14.7-14.67h281.4a14.65,14.65,0,0,1,14.65,14.63v764.89Z"/><path class="cls-2" d="M2195.73,1826.14a14.67,14.67,0,0,1-14.71,14.65H1899.69a14.72,14.72,0,0,1-14.77-14.65V554.7a14.74,14.74,0,0,1,14.77-14.7H2181a14.69,14.69,0,0,1,14.71,14.68V1826.14Z"/></g></g></svg>