<?xml version="1.0" encoding="utf-8"?>
<!-- Svg Vector Icons : http://www.onlinewebfonts.com/icon -->
<!DOCTYPE svg PUBLIC "-//W3C//DTD SVG 1.1//EN" "http://www.w3.org/Graphics/SVG/1.1/DTD/svg11.dtd">
<svg version="1.1" xmlns="http://www.w3.org/2000/svg" xmlns:xlink="http://www.w3.org/1999/xlink" x="0px" y="0px" viewBox="0 0 1000 1000" enable-background="new 0 0 1000 1000" xml:space="preserve">
<metadata> Svg Vector Icons : http://www.onlinewebfonts.com/icon </metadata>
<g><g transform="translate(0.000000,511.000000) scale(0.100000,-0.100000)"><path d="M939.5,4980.7c-371.4-89.9-678.3-381.2-795.6-750.6c-46.9-146.6-54.7-420.3-19.6-576.7c52.8-222.8,150.5-373.4,437.9-668.5L834,2707.3l-99.7-175.9c-301-523.9-494.6-1090.8-590.4-1724.1C89.2,441.7,85.3-156.4,134.1-520c93.8-688.1,340.1-1391.8,682.2-1937.2c19.6-31.3-11.7-68.4-252.2-314.7c-291.3-295.2-361.6-396.8-430.1-633.3c-39.1-138.8-45-387.1-7.8-535.6c97.7-406.6,414.4-725.2,819.1-821c142.7-33.2,408.5-29.3,545.4,9.8c218.9,64.5,332.3,140.8,625.5,428.1l277.6,273.7l74.3-45c168.1-101.6,713.5-355.8,901.2-422.2c1344.9-463.3,2818.8-334.3,4032.7,353.8l193.5,109.5l277.6-271.7c230.6-224.8,303-281.5,424.2-342.1c185.7-89.9,316.7-119.2,516.1-117.3c306.9,3.9,545.4,105.6,764.3,326.5c340.1,340.1,416.4,813.2,203.3,1256.9c-68.4,140.7-113.4,197.4-349.9,439.8l-271.7,279.5l60.6,95.8c115.3,183.8,326.4,645.1,412.5,899.2c170.1,498.5,244.4,912.9,262,1438.7c23.4,723.3-103.6,1421.1-379.2,2068.2c-89.9,211.1-254.1,535.6-322.5,633.3l-39.1,54.7l281.5,287.3c220.9,224.8,293.2,314.7,342.1,416.4c218.9,445.7,131,959.8-222.9,1299.9c-328.4,314.7-840.6,387-1260.8,179.8c-93.8-46.9-191.6-129-410.5-344l-287.4-281.5l-54.7,39.1c-107.5,76.2-508.2,275.6-729.1,363.6c-434,170.1-869.9,275.6-1358.6,326.5c-285.4,27.4-893.3,13.7-1172.9-31.3c-295.2-45-735-158.3-996.9-258c-226.8-86-641.2-285.4-801.5-385.1l-78.2-46.9l-277.6,269.8c-242.4,236.5-299.1,281.5-439.8,349.9C1438,5012,1187.8,5041.3,939.5,4980.7z M1387.1,4611.3c62.6-17.6,146.6-48.9,183.8-72.3c39.1-23.5,217-185.7,394.9-361.6c392.9-387,371.4-379.2,658.8-203.3c563,346,1231.5,574.7,1884.4,645.1c244.4,27.4,744.8,27.4,989.1,0c662.7-70.4,1372.2-320.6,1915.7-668.5c230.6-148.6,222.9-152.5,611.8,230.7c269.8,265.8,351.9,334.3,453.5,383.1c381.2,177.9,824.9,15.6,995-365.5c58.6-134.9,70.4-359.7,25.4-498.5c-56.7-166.2-113.3-242.4-443.7-576.7c-371.4-377.3-367.5-361.6-199.4-625.5c328.4-525.8,557.1-1174.8,643.1-1831.6c33.3-265.8,39.1-770.2,7.8-1045.8c-70.4-649-301-1325.3-643.1-1882.5c-179.8-291.3-187.7-265.9,215-672.5c406.6-410.5,439.8-467.2,439.8-752.6c0-162.2-7.8-201.3-54.7-304.9c-66.5-142.7-197.5-277.6-346-353.8c-97.7-48.9-127.1-54.7-312.8-54.7c-306.9,0-357.7,29.3-764.3,432c-263.9,263.9-336.2,324.5-391,332.3c-56.7,7.8-99.7-9.8-301-131c-535.6-322.5-1104.5-525.8-1722.2-615.8c-324.5-48.9-950-48.9-1268.7,0c-627.5,93.8-1212,306.9-1751.5,639.2c-109.5,68.4-211.1,115.3-242.4,115.3c-43,0-119.2-64.5-389-328.4c-422.2-414.4-473.1-443.7-774.1-443.7c-179.8,0-218.9,5.9-312.8,50.8c-373.4,174-525.8,598.2-351.9,969.6c46.9,99.7,119.2,185.7,391,463.3c267.8,273.7,332.3,349.9,332.3,392.9c0,33.2-48.9,132.9-117.3,244.4c-609.9,987.2-821,2169.8-586.4,3299.7c105.6,512.2,273.7,946.1,549.3,1417.2c136.8,232.6,156.4,277.6,146.6,332.3c-9.8,46.9-95.8,146.6-342.1,394.9c-215,218.9-342.1,363.6-369.5,422.2c-134.9,281.5-89.9,586.4,119.2,813.2C847.6,4603.5,1115.4,4681.7,1387.1,4611.3z"/><path d="M4739.6,4247.7c-1454.4-74.3-2795.3-965.7-3456.1-2300.8C491.9,344,804.6-1558,2069.4-2818.9c627.5-623.6,1368.3-1006.7,2250-1163.1c332.3-58.6,957.8-64.5,1290.1-11.7c1839.4,289.3,3252.8,1728,3499.1,3561.6c46.9,338.2,33.3,957.9-27.4,1270.6c-220.9,1161.1-860.1,2119-1845.3,2762.1C6514.6,4071.8,5658.3,4292.7,4739.6,4247.7z M5306.5,3878.2c727.2-62.6,1419.2-332.3,2003.7-780c166.2-127.1,482.9-435.9,621.6-607.9C9268.9,834.6,8991.3-1558,7310.1-2875.6c-1204.1-944.2-2897-1053.6-4218.4-275.6c-635.3,373.4-1169,948.1-1489.6,1604.9c-392.9,803.4-486.7,1733.9-263.9,2601.8C1795.7,2828.5,3492.5,4034.6,5306.5,3878.2z"/><path d="M4788.5,1219.7c-428.1-91.9-772.1-412.5-879.6-821c-37.1-140.7-37.1-430.1,0-574.7c76.2-289.3,293.2-564.9,551.3-701.8c183.8-95.8,330.4-131,547.3-131c991.1,0,1489.5,1210,785.8,1913.7c-205.3,205.2-455.5,312.8-748.7,324.5C4946.8,1233.4,4831.5,1229.5,4788.5,1219.7z M5230.3,828.8c332.3-103.6,543.4-418.3,521.9-770.2c-27.4-432-451.6-774.1-864-697.8C4284.1-527.9,4030,166.1,4430.8,604C4649.7,844.4,4931.2,922.6,5230.3,828.8z"/><path d="M8705.9,4249.6c-172-29.3-299.1-183.7-299.1-361.6c0-334.3,410.5-494.6,635.3-250.2c76.2,82.1,95.8,129,95.8,238.5c0,119.2-25.4,189.6-93.8,261.9C8952.2,4236,8840.8,4271.2,8705.9,4249.6z"/><path d="M1054.8,4220.3c-89.9-48.9-129-89.9-168.1-175.9c-129-277.6,127.1-594.3,418.3-516.1c305,80.1,387.1,465.2,140.7,654.9c-60.6,45-97.7,56.7-203.3,62.5C1150.6,4249.6,1095.9,4241.8,1054.8,4220.3z"/><path d="M1074.4-3321.2c-132.9-62.6-224.8-201.3-224.8-346c0-111.4,39.1-193.5,132.9-277.6c148.6-134.9,367.5-121.2,510.2,33.2c158.3,172,125.1,422.2-72.3,557.1C1340.2-3297.8,1162.4-3282.1,1074.4-3321.2z"/><path d="M8629.6-3327.1c-228.7-99.7-297.1-367.5-142.7-572.8c152.5-201.3,496.5-170.1,611.8,56.7c72.4,140.8,39.1,353.8-72.3,453.5C8928.7-3299.7,8754.7-3272.4,8629.6-3327.1z"/></g></g>
</svg>