<?xml version='1.0' encoding='iso-8859-1'?>
<!DOCTYPE svg PUBLIC '-//W3C//DTD SVG 1.1//EN' 'http://www.w3.org/Graphics/SVG/1.1/DTD/svg11.dtd'>
<svg version="1.1" xmlns="http://www.w3.org/2000/svg" viewBox="0 0 447.738 447.738" xmlns:xlink="http://www.w3.org/1999/xlink" enable-background="new 0 0 447.738 447.738">
  <g>
    <path d="m136.139,229.5c39.005,0 70.737-31.732 70.737-70.737s-31.732-70.738-70.737-70.738-70.737,31.733-70.737,70.738 31.732,70.737 70.737,70.737zm0-131.476c33.491,0 60.737,27.247 60.737,60.738s-27.246,60.738-60.737,60.738-60.737-27.247-60.737-60.737 27.246-60.739 60.737-60.739z"/>
    <path d="m136.139,189.562c16.983,0 30.799-13.816 30.799-30.799s-13.816-30.8-30.799-30.8-30.8,13.817-30.8,30.8 13.817,30.799 30.8,30.799zm0-51.6c11.469,0 20.799,9.331 20.799,20.8 0,11.469-9.331,20.799-20.799,20.799-11.469,0-20.8-9.331-20.8-20.799-1.42109e-14-11.469 9.331-20.8 20.8-20.8z"/>
    <path d="m423.427,193.481h-177.97c-10.788,0-19.953,7.066-23.121,16.811h-6.059c9.593-14.867 15.167-32.559 15.167-51.53 0-52.551-42.753-95.304-95.304-95.304-9.63,0-18.929,1.441-27.699,4.11h-51.715c-15.145,0-27.466,12.321-27.466,27.466v8.611c-16.685,3.473-29.26,18.29-29.26,35.99v189.199c0,30.573 24.874,55.447 55.447,55.447h132.107c14.377,0 26.074-11.697 26.074-26.074v-12.047h8.707c3.169,9.745 12.333,16.811 23.121,16.811h177.97c13.405,0 24.312-10.906 24.312-24.311v-120.868c-5.68434e-14-13.405-10.906-24.311-24.311-24.311zm-187.281,54.029h196.592v19.952h-196.592v-19.952zm9.311-39.029h177.97c5.135,0 9.312,4.177 9.312,9.311v19.718h-196.593v-19.718c0-5.134 4.177-9.311 9.311-9.311zm-29.014-49.719c0,44.28-36.024,80.304-80.304,80.304s-80.304-36.024-80.304-80.304 36.024-80.304 80.304-80.304 80.304,36.024 80.304,80.304zm-172.183-63.728c7.10543e-15-6.874 5.592-12.466 12.466-12.466h22.23c-7.621,5.734-14.354,12.584-19.961,20.303h-14.735v-7.837zm-7.498,22.839h13.302c-5.913,12.398-9.229,26.263-9.229,40.889 0,31.997 15.85,60.36 40.11,77.653v132.865h-13.73v-112.963c0-11.539-9.388-20.927-20.926-20.927h-31.289v-58.376h8.559c2.761,0 5-2.239 5-5s-2.239-5-5-5h-8.559v-9.499h8.559c2.761,0 5-2.239 5-5s-2.239-5-5-5h-8.559v-7.88c0-12 9.762-21.762 21.762-21.762zm-21.762,210.96v-83.443h31.289c6.025,0 10.926,4.902 10.926,10.927v112.963h-1.768c-22.302,0-40.447-18.144-40.447-40.447zm172.554,40.447h-96.609v-126.63c13.457,7.279 28.851,11.416 45.194,11.416 23.886,0 45.746-8.834 62.489-23.405v127.545c-2.84217e-14,6.107-4.967,11.074-11.074,11.074zm26.074-143.988h7.518v105.867h-7.518v-105.867zm209.799,122.678h-177.97c-5.134,0-9.311-4.177-9.311-9.311v-61.197h196.592v61.197c-5.68434e-14,5.134-4.176,9.311-9.311,9.311z"/>
    <path d="m180.442,251.158c-1.32,0-2.6,0.53-3.53,1.46-0.94,0.93-1.47,2.22-1.47,3.54 0,1.31 0.53,2.6 1.47,3.53 0.93,0.93 2.22,1.47 3.53,1.47 1.32,0 2.61-0.54 3.54-1.47s1.46-2.22 1.46-3.53c0-1.32-0.53-2.61-1.46-3.54-0.93-0.93-2.22-1.46-3.54-1.46z"/>
  </g>
</svg>
