<?xml version="1.0" ?><svg data-name="Layer 1" id="Layer_1" viewBox="0 0 32 32" xmlns="http://www.w3.org/2000/svg" fill="#23d801"><title/><path d="M27,4.87C26.64,3.58,25.72,3,24,3H6V3.5A7.61,7.61,0,0,0,7.47,7.12l-0.11.65A78,78,0,0,0,6,20.5V23a2,2,0,0,0,2,2H23a2,2,0,0,0,2-2V20.5c0-.49,0-1.07,0-1.7l1.31-.88A3.67,3.67,0,0,0,28,15.25,48.56,48.56,0,0,0,27,4.87ZM8.35,7.93L8.53,6.87,8.4,6.7A8.33,8.33,0,0,1,7.06,4H21.47c0.92,0.55,2.46,8.5,2.53,16H17V7.5a1.5,1.5,0,0,0-3,0V20H7A79.65,79.65,0,0,1,8.35,7.93ZM16,7.5v13a0.5,0.5,0,0,1-1,0V7.5A0.5,0.5,0,0,1,16,7.5ZM23,24H8a1,1,0,0,1-1-1V21h7.09a1.49,1.49,0,0,0,2.82,0H24v2A1,1,0,0,1,23,24Zm2.73-6.92-0.81.54c-0.24-4.56-1-11.15-2.3-13.62H24c1.59,0,1.86.53,2,1.13a47.35,47.35,0,0,1,1,10.12A2.76,2.76,0,0,1,25.73,17.08Z"/><path d="M23,26H8a2,2,0,0,0-2,2v1H25V28A2,2,0,0,0,23,26ZM7,28a1,1,0,0,1,1-1H23a1,1,0,0,1,1,1H7Z"/></svg>