<?xml version="1.0" ?><svg data-name="Layer 1" id="Layer_1" viewBox="0 0 32 32" xmlns="http://www.w3.org/2000/svg"><title/><path d="M23,12v0H12v2.05a2.5,2.5,0,0,0-2,2.45v6A2.5,2.5,0,0,0,12.5,25h10A2.5,2.5,0,0,0,25,22.5v-6a2.5,2.5,0,0,0-2-2.45V13a3.5,3.5,0,0,1,3,3.46V21h1V16.5A4.51,4.51,0,0,0,23,12ZM13,13h9v1H13V13Zm11,3.5v6A1.5,1.5,0,0,1,22.5,24h-10A1.5,1.5,0,0,1,11,22.5v-6A1.5,1.5,0,0,1,12.5,15h10A1.5,1.5,0,0,1,24,16.5Z"/><rect height="1" width="4" x="13" y="16"/><path d="M25,26H9V8h2a4.7,4.7,0,0,0,1.13,2.85L12.29,11H22.71l0.15-.15A4.87,4.87,0,0,0,24,7.5V5a2,2,0,0,0-2-2H6A2,2,0,0,0,4,5V29H27V28A2,2,0,0,0,25,26ZM5,28V5A1,1,0,0,1,6,4H22a1,1,0,0,1,1,1V7.5a4.16,4.16,0,0,1-.73,2.5H12.73A4.15,4.15,0,0,1,12,7.5V7H8V27H25a1,1,0,0,1,1,1H5Z"/></svg>