<?xml version="1.0" encoding="iso-8859-1"?>
<!-- Generator: Adobe Illustrator 19.0.0, SVG Export Plug-In . SVG Version: 6.00 Build 0)  -->
<svg version="1.1" id="Capa_1" xmlns="http://www.w3.org/2000/svg" xmlns:xlink="http://www.w3.org/1999/xlink" x="0px" y="0px"
	 viewBox="0 0 512 512" style="enable-background:new 0 0 512 512;" xml:space="preserve">
<g>
	<g>
		<path d="M476.215,0H35.785C15.718,0,0,15.718,0,35.785v440.43C0,496.282,15.718,512,35.785,512h440.43
			C496.282,512,512,496.282,512,476.215V35.785C512,15.718,496.282,0,476.215,0z M495.484,476.215
			c0,10.807-8.462,19.269-19.269,19.269H35.785c-10.802,0-19.269-8.462-19.269-19.269V35.785c0-10.802,8.467-19.269,19.269-19.269
			h440.43c10.807,0,19.269,8.467,19.269,19.269V476.215z"/>
	</g>
</g>
<g>
	<g>
		<path d="M145.892,55.054c-50.088,0-90.839,40.751-90.839,90.839c0,50.088,40.751,90.839,90.839,90.839
			c50.088,0,90.839-40.751,90.839-90.839C236.731,95.805,195.98,55.054,145.892,55.054z M145.892,220.215
			c-40.982,0-74.323-33.341-74.323-74.323c0-40.982,33.341-74.323,74.323-74.323c40.982,0,74.323,33.341,74.323,74.323
			C220.215,186.875,186.875,220.215,145.892,220.215z"/>
	</g>
</g>
<g>
	<g>
		<path d="M366.108,275.269c-34.91,0-63.312,28.402-63.312,63.312s28.402,63.312,63.312,63.312s63.312-28.402,63.312-63.312
			C429.419,303.671,401.017,275.269,366.108,275.269z M366.108,385.376c-25.804,0-46.796-20.992-46.796-46.796
			s20.992-46.796,46.796-46.796c25.804,0,46.796,20.992,46.796,46.796C412.903,364.384,391.911,385.376,366.108,385.376z"/>
	</g>
</g>
<g>
	<g>
		<path d="M145.892,275.269c-34.91,0-63.312,28.402-63.312,63.312s28.402,63.312,63.312,63.312c34.91,0,63.312-28.402,63.312-63.312
			C209.204,303.671,180.802,275.269,145.892,275.269z M145.892,385.376c-25.804,0-46.796-20.992-46.796-46.796
			s20.992-46.796,46.796-46.796s46.796,20.992,46.796,46.796C192.688,364.384,171.696,385.376,145.892,385.376z"/>
	</g>
</g>
<g>
	<g>
		<path d="M366.108,55.054c-50.088,0-90.839,40.751-90.839,90.839c0,50.088,40.751,90.839,90.839,90.839
			c50.088,0,90.839-40.751,90.839-90.839C456.946,95.805,416.195,55.054,366.108,55.054z M366.108,220.215
			c-40.982,0-74.323-33.341-74.323-74.323c0-40.982,33.341-74.323,74.323-74.323c40.982,0,74.323,33.341,74.323,74.323
			C440.43,186.875,407.09,220.215,366.108,220.215z"/>
	</g>
</g>
<g>
	<g>
		<path d="M173.579,440.43c-59.029-1.167-59.051-1.173-62.194,3.81c-1.547,2.45-1.701,5.555-0.407,8.142
			c1.448,2.89,4.366,4.564,7.394,4.564c0.749,0,1.508-0.105,2.252-0.314c5.225-0.352,30.241-0.127,52.631,0.314
			c4.564,0.11,8.33-3.534,8.418-8.098C181.76,444.289,178.137,440.524,173.579,440.43z"/>
	</g>
</g>
<g>
	<g>
		<path d="M325.918,440.43h-1.101c-4.558,0-8.258,3.7-8.258,8.258s3.7,8.258,8.258,8.258h1.101c4.558,0,8.258-3.7,8.258-8.258
			S330.477,440.43,325.918,440.43z"/>
	</g>
</g>
<g>
	<g>
		<path d="M353.445,440.43h-1.101c-4.558,0-8.258,3.7-8.258,8.258s3.7,8.258,8.258,8.258h1.101c4.558,0,8.258-3.7,8.258-8.258
			S358.004,440.43,353.445,440.43z"/>
	</g>
</g>
<g>
	<g>
		<path d="M380.972,440.43h-1.101c-4.558,0-8.258,3.7-8.258,8.258s3.7,8.258,8.258,8.258h1.101c4.558,0,8.258-3.7,8.258-8.258
			S385.531,440.43,380.972,440.43z"/>
	</g>
</g>
<g>
	<g>
		<path d="M408.499,440.43h-1.101c-4.558,0-8.258,3.7-8.258,8.258s3.7,8.258,8.258,8.258h1.101c4.558,0,8.258-3.7,8.258-8.258
			S413.057,440.43,408.499,440.43z"/>
	</g>
</g>
<g>
</g>
<g>
</g>
<g>
</g>
<g>
</g>
<g>
</g>
<g>
</g>
<g>
</g>
<g>
</g>
<g>
</g>
<g>
</g>
<g>
</g>
<g>
</g>
<g>
</g>
<g>
</g>
<g>
</g>
</svg>
