<svg id="icons" enable-background="new 0 0 64 64" height="512" viewBox="0 0 64 64" width="512" xmlns="http://www.w3.org/2000/svg"><path d="m6.498 60.902v2.1c0 .553.447 1 1 1h5.996c.553 0 1-.447 1-1v-1.998h24v1.998c0 .553.447 1 1 1h5.996c.553 0 1-.447 1-1v-2.099c2.28-.464 4.002-2.484 4.002-4.899v-5.996h1.006c.022 0 .042-.012.064-.013 3.83-.034 6.938-3.158 6.938-6.997v-25.144c1.722-.446 3.002-1.999 3.002-3.858v-1.996c0-.553-.447-1-1-1h-.5v-1c0-.553-.447-1-1-1s-1 .447-1 1v1h-1v-1c0-.553-.447-1-1-1s-1 .447-1 1v1h-.5c-.553 0-1 .447-1 1v1.996c0 1.858 1.278 3.41 2.998 3.857v25.145c0 2.757-2.243 5-5 5-.018 0-.031.009-.049.01h-.959v-12.006-2.992c0-1.646-.81-3.095-2.039-4.007 1.229-.912 2.039-2.361 2.039-4.007v-16.994c0-2.757-2.243-5-5-5h-13.994v-2.004c0-.553-.447-1-1-1h-7.996c-.553 0-1 .447-1 1v2.004h-14.004c-2.757 0-5 2.243-5 5v16.994c0 1.646.81 3.095 2.039 4.007-1.229.912-2.039 2.361-2.039 4.007v2.992 13.006 6.996c0 2.414 1.721 4.434 4 4.898zm49.004-46.906v-.996h4v.996c0 1.103-.897 2-2 2s-2-.897-2-2zm-43.008 48.006h-3.996v-.998h3.996zm31.996-.998v.998h-3.996v-.998zm1.002-2h-37.994c-1.654 0-3-1.346-3-3v-3.021c.838.635 1.87 1.025 3 1.025h14.006v1.996c0 .553.447 1 1 1h7.996c.553 0 1-.447 1-1v-1.996h13.992c1.13 0 2.162-.391 3-1.025v3.021c0 1.654-1.346 3-3 3zm-15.992-4.996v.996h-5.996v-.996zm-5.998-52.01h5.996v1.004h-5.996zm-19.004 6.004c0-1.654 1.346-3 3-3h37.994c1.654 0 3 1.346 3 3v16.994c0 1.654-1.346 3-3 3h-37.994c-1.654 0-3-1.346-3-3zm0 25.008c0-1.654 1.346-3 3-3h37.994c1.654 0 3 1.346 3 3v2.992 13.006c0 1.654-1.346 3-3 3h-14.953c-.014-.001-.025-.008-.039-.008s-.025.007-.039.008h-7.918c-.014-.001-.025-.008-.039-.008s-.025.007-.039.008h-14.967c-1.654 0-3-1.346-3-3v-13.006z"/><path d="m7.498 51.008h37.994c1.103 0 2-.897 2-2v-15.998c0-1.084-.916-2-2-2h-37.994c-1.084 0-2 .916-2 2v15.998c0 1.102.898 2 2 2zm30.004-2h-2v-15.998h2zm2-15.998h2v15.998h-2zm-6 15.998h-2v-15.998h2zm-4 0h-2v-15.998h2zm-4 0h-2v-15.998h2zm-4 0h-2v-15.998h2zm-4 0h-2v-15.998h2zm-4 0h-2v-15.998h2zm31.978 0h-1.979v-15.998h1.99zm-37.982-15.998h2.004v15.998h-2.004z"/><path d="m7.498 26.996h2.999c.002 0 .003.001.005.001s.003-.001.005-.001h3.99c.002 0 .003.001.005.001s.003-.001.005-.001h3.99c.002 0 .003.001.005.001s.003-.001.005-.001h3.99c.002 0 .003.001.005.001s.003-.001.005-.001h3.99c.002 0 .003.001.005.001s.003-.001.005-.001h3.99c.002 0 .003.001.005.001s.003-.001.005-.001h3.99c.002 0 .003.001.005.001s.003-.001.005-.001h3.99c.002 0 .003.001.005.001s.003-.001.005-.001h3.99c.002 0 .003.001.005.001s.003-.001.005-.001h2.985c1.103 0 2-.897 2-2v-16.994c0-1.103-.897-2-2-2h-37.994c-1.103 0-2 .897-2 2v16.994c0 1.103.898 2 2 2zm30.004-2h-2v-16.994h2zm2-16.994h2v16.994h-2zm-6 16.994h-2v-16.994h2zm-4 0h-2v-16.994h2zm-4 0h-2v-16.994h2zm-4 0h-2v-16.994h2zm-4 0h-2v-16.994h2zm-4 0h-2v-16.994h2zm31.978 0h-1.979v-16.994h1.99zm-37.982-16.994h2.004v16.994h-2.004z"/></svg>