<?xml version="1.0" encoding="iso-8859-1"?>
<!-- Generator: Adobe Illustrator 20.0.0, SVG Export Plug-In . SVG Version: 6.00 Build 0)  -->
<svg version="1.1" id="Layer_1_1_" xmlns="http://www.w3.org/2000/svg" xmlns:xlink="http://www.w3.org/1999/xlink" x="0px" y="0px"
	 viewBox="0 0 64 64" style="enable-background:new 0 0 64 64;" xml:space="preserve">
<g id="Guide">
	<g>
	</g>
	<g>
	</g>
	<g>
	</g>
	<g>
	</g>
	<g>
	</g>
	<g>
	</g>
	<g>
	</g>
	<g>
	</g>
	<g>
	</g>
	<g>
	</g>
	<g>
	</g>
	<g>
	</g>
	<g>
	</g>
	<g>
	</g>
	<g>
	</g>
	<g>
	</g>
	<g>
	</g>
	<g>
	</g>
	<g>
	</g>
	<g>
	</g>
	<g>
	</g>
	<g>
	</g>
	<g>
	</g>
	<g>
	</g>
	<g>
	</g>
	<g>
	</g>
	<g>
	</g>
	<g>
	</g>
	<g>
	</g>
	<g>
	</g>
	<g>
	</g>
	<g>
	</g>
	<g>
	</g>
	<g>
	</g>
	<g>
	</g>
	<g>
	</g>
</g>
<path d="M58,34c-3.309,0-6,2.691-6,6v10H36.867l-0.877-6.142C35.92,43.366,35.498,43,35,43V30c0.553,0,1-0.448,1-1v-5
	c0-0.552-0.447-1-1-1V9.816C35.847,9.514,36.514,8.847,36.816,8H47c1.654,0,3-1.346,3-3s-1.346-3-3-3H36.816
	C36.402,0.839,35.302,0,34,0h-4c-1.302,0-2.402,0.839-2.816,2H17c-1.654,0-3,1.346-3,3s1.346,3,3,3h10.184
	C27.486,8.847,28.153,9.514,29,9.816V23c-0.553,0-1,0.448-1,1v5c0,0.552,0.447,1,1,1v13c-0.498,0-0.92,0.366-0.99,0.858L27.133,50
	H12V40c0-3.309-2.691-6-6-6s-6,2.691-6,6v18c0,3.309,2.691,6,6,6s6-2.691,6-6v-1h40v1c0,3.309,2.691,6,6,6s6-2.691,6-6V40
	C64,36.691,61.309,34,58,34z M62,53.586l-4,4l-4-4v-2.172l3.293,3.293C57.488,54.902,57.744,55,58,55s0.512-0.098,0.707-0.293
	L62,51.414V53.586z M62,48.586l-4,4l-3.624-3.624c0.596-0.057,1.152-0.239,1.643-0.529l1.274,1.274C57.488,49.902,57.744,50,58,50
	s0.512-0.098,0.707-0.293L62,46.414V48.586z M57.433,47.019C57.785,46.424,58,45.74,58,45c0-1.103,0.897-2,2-2h2v0.586l-4,4
	L57.433,47.019z M54,40c0-2.206,1.794-4,4-4s4,1.794,4,4v1h-2c-2.206,0-4,1.794-4,4c0,1.103-0.897,2-2,2V40z M30,25h4v3h-4V25z
	 M48,5c0,0.551-0.448,1-1,1H37V4h10C47.552,4,48,4.449,48,5z M30,2h4c0.552,0,1,0.449,1,1v4c0,0.551-0.448,1-1,1h-4
	c-0.552,0-1-0.449-1-1V3C29,2.449,29.448,2,30,2z M16,5c0-0.551,0.448-1,1-1h10v2H17C16.448,6,16,5.551,16,5z M31,10h2v13h-2V10z
	 M31,30h2v13h-2V30z M2,43h2c1.103,0,2,0.897,2,2c0,0.74,0.215,1.424,0.567,2.019L6,47.586l-4-4V43z M5.293,49.707
	C5.488,49.902,5.744,50,6,50s0.512-0.098,0.707-0.293l1.274-1.274c0.491,0.29,1.047,0.472,1.643,0.529L6,52.586l-4-4v-2.172
	L5.293,49.707z M2,51.414l3.293,3.293C5.488,54.902,5.744,55,6,55s0.512-0.098,0.707-0.293L10,51.414v2.172l-4,4l-4-4V51.414z M6,36
	c2.206,0,4,1.794,4,4v7c-1.103,0-2-0.897-2-2c0-2.206-1.794-4-4-4H2v-1C2,37.794,3.794,36,6,36z M6,62c-2.206,0-4-1.794-4-4v-1.586
	l3.293,3.293C5.488,59.902,5.744,60,6,60s0.512-0.098,0.707-0.293L10,56.414V58C10,60.206,8.206,62,6,62z M12,55v-3h16
	c0.498,0,0.92-0.366,0.99-0.858L29.867,45H30h4h0.133l0.877,6.142C35.08,51.634,35.502,52,36,52h16v3H12z M58,62
	c-2.206,0-4-1.794-4-4v-1.586l3.293,3.293C57.488,59.902,57.744,60,58,60s0.512-0.098,0.707-0.293L62,56.414V58
	C62,60.206,60.206,62,58,62z"/>
<rect x="31" y="49" width="2" height="2"/>
<rect x="31" y="46" width="2" height="2"/>
<rect x="31" y="52" width="2" height="2"/>
</svg>
