<?xml version="1.0" ?><svg data-name="Layer 1" id="Layer_1" viewBox="0 0 32 32" xmlns="http://www.w3.org/2000/svg" fill="#23d801"><defs><style>.cls-1{fill:#23d801;}</style></defs><title/><path class="cls-1" d="M30.5,11H22V3H4v8H1.5A1.5,1.5,0,0,0,0,12.5v15A1.5,1.5,0,0,0,1.5,29h29A1.5,1.5,0,0,0,32,27.5v-15A1.5,1.5,0,0,0,30.5,11ZM3,22H23v6H3V22ZM24,12h5V28H24V12ZM5,4H21v7H5V4Zm17,8h1v9H3V12H22ZM1,27.5v-15A0.5,0.5,0,0,1,1.5,12H2V28H1.5A0.5,0.5,0,0,1,1,27.5Zm30,0a0.5,0.5,0,0,1-.5.5H30V12h0.5a0.5,0.5,0,0,1,.5.5v15Z"/><rect class="cls-1" height="1" width="8" x="6" y="5"/><rect class="cls-1" height="1" width="13" x="6" y="7"/><rect class="cls-1" height="1" width="6" x="6" y="9"/><rect class="cls-1" height="1" width="3" x="25" y="25"/><rect class="cls-1" height="1" width="3" x="25" y="23"/><rect class="cls-1" height="1" width="3" x="25" y="21"/><circle class="cls-1" cx="26.5" cy="15" r="1"/></svg>