<svg height="488pt" viewBox="0 -36 488 488" width="488pt" xmlns="http://www.w3.org/2000/svg"><path d="m296 400h-248.054688c-4.386718-.003906-7.941406-3.558594-7.945312-7.945312v-8.054688h240c4.417969 0 8-3.582031 8-8s-3.582031-8-8-8h-248c-8.835938 0-16-7.164062-16-16v-208c0-8.835938 7.164062-16 16-16h80v40c.027344 22.082031 17.917969 39.972656 40 40h32c22.082031-.027344 39.972656-17.917969 40-40v-40h80c8.835938 0 16 7.164062 16 16v24c0 4.417969 3.582031 8 8 8s8-3.582031 8-8v-24c0-17.671875-14.328125-32-32-32v-8c-.027344-22.082031-17.917969-39.972656-40-40v-32c0-17.671875-14.328125-32-32-32h-128c-17.671875 0-32 14.328125-32 32v32c-22.082031.027344-39.972656 17.917969-40 40v8c-17.671875 0-32 14.328125-32 32v208c.0546875 14.546875 9.914062 27.226562 24 30.863281v9.191407c.03125 13.210937 10.734375 23.914062 23.945312 23.945312h248.054688c4.417969 0 8-3.582031 8-8s-3.582031-8-8-8zm-208-368c0-8.835938 7.164062-16 16-16h128c8.835938 0 16 7.164062 16 16v32h-16v-24c0-4.417969-3.582031-8-8-8h-112c-4.417969 0-8 3.582031-8 8v24h-16zm128 32h-96v-16h96zm-168 40c0-13.253906 10.746094-24 24-24h192c13.253906 0 24 10.746094 24 24v8h-72c-4.417969 0-8 3.582031-8 8v48c0 13.253906-10.746094 24-24 24h-32c-13.253906 0-24-10.746094-24-24v-48c0-4.417969-3.582031-8-8-8h-72zm0 0"/><path d="m152 168h32c4.417969 0 8-3.582031 8-8s-3.582031-8-8-8h-32c-4.417969 0-8 3.582031-8 8s3.582031 8 8 8zm0 0"/><path d="m112 328c4.417969 0 8-3.582031 8-8v-64c0-13.253906-10.746094-24-24-24h-32c-13.253906 0-24 10.746094-24 24v64c0 4.417969 3.582031 8 8 8s8-3.582031 8-8v-64c0-4.417969 3.582031-8 8-8h32c4.417969 0 8 3.582031 8 8v64c0 4.417969 3.582031 8 8 8zm0 0"/><path d="m88 276c0 4.417969-3.582031 8-8 8s-8-3.582031-8-8 3.582031-8 8-8 8 3.582031 8 8zm0 0"/><path d="m88 304c0 4.417969-3.582031 8-8 8s-8-3.582031-8-8 3.582031-8 8-8 8 3.582031 8 8zm0 0"/><path d="m224 248c-4.417969 0-8 3.582031-8 8s-3.582031 8-8 8-8-3.582031-8-8-3.582031-8-8-8-8 3.582031-8 8c0 13.253906 10.746094 24 24 24s24-10.746094 24-24c0-4.417969-3.582031-8-8-8zm0 0"/><path d="m208 296c-13.253906 0-24 10.746094-24 24s10.746094 24 24 24 24-10.746094 24-24-10.746094-24-24-24zm0 32c-4.417969 0-8-3.582031-8-8s3.582031-8 8-8 8 3.582031 8 8-3.582031 8-8 8zm0 0"/><path d="m256 248c-4.417969 0-8 3.582031-8 8s3.582031 8 8 8h16c4.417969 0 8-3.582031 8-8s-3.582031-8-8-8zm0 0"/><path d="m488 296c0-4.417969-3.582031-8-8-8h-9.472656c.949218-2.5625 1.445312-5.269531 1.472656-8-.003906-8.207031-4.203125-15.839844-11.128906-20.238281 5.375-9.425781 3.703125-21.289063-4.070313-28.859375l22.792969-68.375c1.394531-4.195313-.875-8.730469-5.074219-10.128906-4.195312-1.394532-8.730469.875-10.128906 5.074218l-22.230469 66.742188c-.71875-.0625-1.425781-.214844-2.160156-.214844-.007812-9.5625-5.695312-18.210938-14.472656-22.007812l14.28125-64.257813c.679687-2.808594-.210938-5.769531-2.332032-7.738281-2.121093-1.96875-5.136718-2.640625-7.890624-1.753906-2.757813.882812-4.816407 3.1875-5.394532 6.023437l-14.839844 66.757813c-1.777343.503906-3.488281 1.210937-5.105468 2.105468-4.402344-6.921875-12.039063-11.117187-20.246094-11.117187s-15.84375 4.195312-20.246094 11.117187c-7.417968-4.21875-16.519531-4.164062-23.890625.136719-7.367187 4.300781-11.886719 12.203125-11.863281 20.734375-8.535156-.027344-16.4375 4.496094-20.738281 11.867188-4.304688 7.371093-4.355469 16.472656-.132813 23.894531-6.925781 4.398437-11.125 12.03125-11.128906 20.238281.027344 2.730469.523438 5.4375 1.472656 8h-9.472656c-4.417969 0-8 3.582031-8 8 .015625 35.445312 18.113281 68.4375 48 87.496094v24.503906c0 4.417969 3.582031 8 8 8h96c4.417969 0 8-3.582031 8-8v-24.488281c29.847656-19.101563 47.933594-52.074219 48-87.511719zm-176-16c0-4.398438 3.546875-7.96875 7.945312-8l1.09375.144531c4.054688.402344 7.792969-2.214843 8.800782-6.160156l.230468-.914063c1.09375-3.980468-1.023437-8.140624-4.886718-9.597656-3.09375-1.003906-5.277344-3.78125-5.515625-7.027344-.238281-3.246093 1.515625-6.3125 4.429687-7.753906 2.917969-1.445312 6.417969-.976562 8.855469 1.179688 3.222656 2.601562 7.898437 2.308594 10.773437-.671875l1.386719-1.375c2.996094-2.871094 3.304688-7.558594.703125-10.792969-2.019531-2.441406-2.398437-5.847656-.964844-8.671875 1.433594-2.824219 4.410157-4.527344 7.574219-4.335937 3.164063.191406 5.910157 2.246093 6.988281 5.222656 2.035157 3.898437 6.53125 5.828125 10.753907 4.609375 3.921875-1.007813 6.46875-4.785157 5.9375-8.800781l-.105469-1.054688c-.015625-4.417969 3.554688-8.011719 7.972656-8.027344 4.417969-.015625 8.011719 3.554688 8.027344 7.972656l-.136719 1.054688c-.53125 4.011719 2.015625 7.789062 5.9375 8.800781l1.128907.289063c3.984374 1.089844 8.140624-1.03125 9.597656-4.898438 1.148437-3.128906 4.136718-5.207031 7.472656-5.191406 3.085938-.03125 5.90625 1.730469 7.230469 4.515625 1.328125 2.785156.914062 6.085937-1.054688 8.460937-2.601562 3.234376-2.292969 7.921876.703125 10.792969l1.386719 1.375c2.875 2.980469 7.550781 3.269531 10.773437.671875 1.394532-1.160156 3.148438-1.800781 4.960938-1.816406 3.824219.050781 7.078125 2.804688 7.761719 6.570312.683593 3.761719-1.390625 7.484376-4.953125 8.878907-3.863282 1.457031-5.980469 5.617187-4.886719 9.597656l.269531 1.074219c1.007813 3.925781 4.777344 6.496094 8.800782 6l1.007812-.121094c3.027344-.207031 5.910156 1.320312 7.441406 3.9375 1.535156 2.617188 1.457032 5.875-.199218 8.417969-1.660157 2.539062-4.613282 3.921875-7.625 3.574219-.222657-.015626-.441407-.039063-.65625-.074219-.566407-.011719-1.128907.035156-1.679688.144531h-122.496094c-.574218-.113281-1.160156-.160156-1.746094-.144531l-1.039062.144531c-4.417969 0-8-3.582031-8-8zm101.328125 98.878906c-2.726563.929688-4.742187 3.253906-5.277344 6.085938-.535156 2.828125.492188 5.730468 2.691407 7.589844 2.195312 1.863281 5.226562 2.398437 7.929687 1.40625 1.816406-.640626 3.566406-1.394532 5.328125-2.128907v8.167969h-80v-8.167969c4.546875 1.929688 9.226562 3.53125 14 4.800781.652344.167969 1.324219.25 2 .246094 4.027344-.003906 7.421875-2.996094 7.929688-6.992187.507812-3.992188-2.03125-7.742188-5.929688-8.75-35.980469-9.261719-62.253906-40.136719-65.640625-77.136719h175.273437c-3.199218 34.183594-25.949218 63.402344-58.304687 74.878906zm0 0"/><path d="m416 264c0 4.417969-3.582031 8-8 8s-8-3.582031-8-8 3.582031-8 8-8 8 3.582031 8 8zm0 0"/><path d="m384 244c0 4.417969-3.582031 8-8 8s-8-3.582031-8-8 3.582031-8 8-8 8 3.582031 8 8zm0 0"/><path d="m376 140.6875c.003906 2.125-.839844 4.160156-2.34375 5.65625-2.078125 2.007812-2.914062 4.984375-2.183594 7.78125.734375 2.796875 2.917969 4.980469 5.714844 5.710938 2.796875.734374 5.773438-.101563 7.78125-2.179688 9.367188-9.371094 9.367188-24.5625 0-33.9375-1.503906-1.5-2.347656-3.535156-2.347656-5.660156 0-2.121094.84375-4.15625 2.347656-5.660156 3.121094-3.125 3.121094-8.191407-.003906-11.3125-3.125-3.125-8.191406-3.125-11.316406.003906-9.359376 9.382812-9.359376 24.566406 0 33.949218 1.507812 1.492188 2.355468 3.527344 2.351562 5.648438zm0 0"/><path d="m415.023438 95.601562c-3.125 3.125-3.121094 8.191407.003906 11.3125 3.125 3.125 8.191406 3.125 11.316406-.003906 9.359375-9.382812 9.359375-24.566406 0-33.949218-3.117188-3.125-3.117188-8.183594 0-11.304688 3.03125-3.140625 2.988281-8.128906-.097656-11.214844-3.085938-3.085937-8.074219-3.128906-11.214844-.097656-9.367188 9.371094-9.367188 24.5625 0 33.9375 1.5 1.5 2.34375 3.539062 2.34375 5.660156-.003906 2.125-.847656 4.160156-2.351562 5.660156zm0 0"/><path d="m356.40625 270.671875c3.691406-2.433594 4.707031-7.398437 2.269531-11.085937-2.433593-3.6875-7.398437-4.703126-11.085937-2.265626s-4.699219 7.402344-2.261719 11.085938c2.433594 3.683594 7.394531 4.699219 11.078125 2.265625zm0 0"/></svg>