<?xml version="1.0" encoding="UTF-8" standalone="no"?>
<svg
   xmlns:dc="http://purl.org/dc/elements/1.1/"
   xmlns:cc="http://creativecommons.org/ns#"
   xmlns:rdf="http://www.w3.org/1999/02/22-rdf-syntax-ns#"
   xmlns:svg="http://www.w3.org/2000/svg"
   xmlns="http://www.w3.org/2000/svg"
   viewBox="0 0 392 420"
   height="420"
   width="392"
   xml:space="preserve"
   id="svg2"
   version="1.1"><g
     transform="matrix(1.3333333,0,0,-1.3333333,0,420)"
     id="g10"><g
       transform="scale(0.1)"
       id="g12"><path
         id="path14"
         style="fill:#000000;fill-opacity:1;fill-rule:nonzero;stroke:none"
         d="m 1616.02,401.75 h -293.83 c -27.03,0 -48.99,-21.949 -48.99,-48.98 0,-27.032 21.96,-48.95 48.99,-48.95 h 293.83 c 27.03,0 48.94,21.918 48.94,48.95 0,27.031 -21.91,48.98 -48.94,48.98 z m 1077.3,0 c -27.03,0 -48.94,-21.949 -48.94,-48.98 0,-27.032 21.91,-48.95 48.94,-48.95 27.03,0 48.98,21.918 48.98,48.95 0,27.031 -21.95,48.98 -48.98,48.98 z m -2448.48,0 c -27.031,0 -48.942,-21.949 -48.942,-48.98 0,-27.032 21.911,-48.95 48.942,-48.95 27.039,0 48.988,21.918 48.988,48.95 0,27.031 -21.949,48.98 -48.988,48.98 z m 2448.48,2546.41 c -27.03,0 -48.94,-21.92 -48.94,-48.95 0,-27.03 21.91,-48.98 48.94,-48.98 27.03,0 48.98,21.95 48.98,48.98 0,27.03 -21.95,48.95 -48.98,48.95 z M 244.84,2850.23 c 27.039,0 48.988,21.95 48.988,48.98 0,27.03 -21.949,48.95 -48.988,48.95 -27.031,0 -48.942,-21.92 -48.942,-48.95 0,-27.03 21.911,-48.98 48.942,-48.98 z M 1469.1,1283.2 c -243.05,0 -440.74,197.69 -440.74,440.74 0,243.05 197.69,440.74 440.74,440.74 243.05,0 440.7,-197.69 440.7,-440.74 0,-243.05 -197.69,-440.74 -440.7,-440.74 z m 0,930.43 c -270.47,0 -489.69,-219.22 -489.69,-489.69 0,-270.47 219.22,-489.69 489.69,-489.69 270.47,0 489.69,219.22 489.69,489.69 0,270.47 -219.22,489.69 -489.69,489.69 z m 0,-1664.958 c -648.08,0 -1175.272,527.178 -1175.272,1175.268 0,648.05 527.192,1175.27 1175.272,1175.27 648.05,0 1175.28,-527.22 1175.28,-1175.27 0,-648.09 -527.23,-1175.268 -1175.28,-1175.268 z m 0,2399.488 c -676.131,0 -1224.26,-548.09 -1224.26,-1224.22 0,-676.13 548.129,-1224.26 1224.26,-1224.26 676.13,0 1224.22,548.13 1224.22,1224.26 0,676.13 -548.09,1224.22 -1224.22,1224.22 z m 0,-2203.64 c -540.041,0 -979.409,439.38 -979.409,979.42 0,540.04 439.368,979.37 979.409,979.37 540.04,0 979.38,-439.33 979.38,-979.37 0,-540.04 -439.34,-979.42 -979.38,-979.42 z m 0,2056.76 c -594.998,0 -1077.338,-482.34 -1077.338,-1077.34 0,-595 482.34,-1077.35 1077.338,-1077.35 594.96,0 1077.35,482.35 1077.35,1077.35 0,595 -482.39,1077.34 -1077.35,1077.34 z M 2840.23,352.77 c 0,-80.981 -65.89,-146.918 -146.91,-146.918 H 244.84 c -80.969,0 -146.9103,65.937 -146.9103,146.918 v 2546.44 c 0,80.98 65.9413,146.92 146.9103,146.92 h 2448.48 c 81.02,0 146.91,-65.94 146.91,-146.92 z M 2693.32,3144.06 H 244.84 C 110.199,3144.06 0,3033.86 0,2899.21 V 352.77 C 0,218.121 110.199,107.922 244.84,107.922 H 391.762 V 58.9805 c 0,-27.0313 21.949,-48.99222 48.976,-48.99222 h 195.864 c 27.027,0 48.988,21.96092 48.988,48.99222 V 107.922 H 2252.62 V 58.9805 c 0,-27.0313 21.91,-48.99222 48.94,-48.99222 h 195.9 c 27.03,0 48.95,21.96092 48.95,48.99222 v 48.9415 h 146.91 c 134.69,0 244.88,110.199 244.88,244.848 v 2546.44 c 0,134.65 -110.19,244.85 -244.88,244.85 z" /></g></g></svg>