<?xml version="1.0"?>
<svg xmlns="http://www.w3.org/2000/svg" id="OutLine" viewBox="0 0 512 512" width="512" height="512"><path d="M296,40a24,24,0,1,0-24,24A24.027,24.027,0,0,0,296,40Zm-32,0a8,8,0,1,1,8,8A8.005,8.005,0,0,1,264,40Z"/><circle cx="208" cy="56" r="8"/><path d="M360,112h-1.858C348.651,90.978,302.126,80,256,80s-92.651,10.978-102.142,32H152a24.027,24.027,0,0,0-24,24V472a24.027,24.027,0,0,0,24,24H360a24.027,24.027,0,0,0,24-24V136A24.027,24.027,0,0,0,360,112ZM256,96c41.242,0,68.906,8.32,81.031,16H174.969C187.094,104.32,214.758,96,256,96ZM232,480H152a8.005,8.005,0,0,1-8-8V364.567C151.368,360.526,169.56,352,192,352a102,102,0,0,1,40,8.695Zm0-136.564A115.6,115.6,0,0,0,192,336a117.885,117.885,0,0,0-48,10.717V272h88ZM264,480H248V369.292a118.844,118.844,0,0,0,16,7.272Zm0-120.695a85.922,85.922,0,0,1-11.562-5.961c-.245-.163-1.822-1.188-4.438-2.636V272h16ZM368,472a8.005,8.005,0,0,1-8,8H280V381.306A110.786,110.786,0,0,0,304,384c23.014,0,48.852-14.455,64-24.458Zm0-131.975C358.569,347.007,328.2,368,304,368a95.518,95.518,0,0,1-24-3.183V272h88ZM368,256H144V136a8.005,8.005,0,0,1,8-8H360a8.005,8.005,0,0,1,8,8Z"/><path d="M256,152a40,40,0,1,0,40,40A40.047,40.047,0,0,0,256,152Zm0,64a24,24,0,1,1,24-24A24.027,24.027,0,0,1,256,216Z"/><path d="M96,48a24,24,0,1,0,24,24A24.027,24.027,0,0,0,96,48Zm0,32a8,8,0,1,1,8-8A8.005,8.005,0,0,1,96,80Z"/><circle cx="144" cy="40" r="8"/><circle cx="88" cy="136" r="8"/><circle cx="440" cy="160" r="8"/><path d="M408,56a24,24,0,1,0,24,24A24.027,24.027,0,0,0,408,56Zm0,32a8,8,0,1,1,8-8A8.005,8.005,0,0,1,408,88Z"/><circle cx="352" cy="40" r="8"/></svg>
