<?xml version="1.0" encoding="iso-8859-1"?>
<!-- Generator: Adobe Illustrator 19.0.0, SVG Export Plug-In . SVG Version: 6.00 Build 0)  -->
<svg version="1.1" id="Capa_1" xmlns="http://www.w3.org/2000/svg" xmlns:xlink="http://www.w3.org/1999/xlink" x="0px" y="0px"
	 viewBox="0 0 511.999 511.999" style="enable-background:new 0 0 511.999 511.999;" xml:space="preserve">
<g>
	<g>
		<path d="M100.089,448.486c14.234-9.49,22.732-25.369,22.732-42.475c0-17.107-8.498-32.986-22.732-42.475
			c-6.891-4.593-16.204-2.732-20.798,4.16c-4.594,6.892-2.732,16.204,4.16,20.798c5.957,3.971,9.374,10.357,9.374,17.517
			c0,7.16-3.417,13.547-9.374,17.519c-14.234,9.49-22.732,25.556-22.732,42.975c0,17.42,8.499,33.486,22.732,42.974
			c6.861,4.574,16.184,2.763,20.798-4.16c4.594-6.892,2.732-16.204-4.16-20.798c-5.957-3.971-9.375-10.539-9.375-18.017
			S94.131,452.459,100.089,448.486z"/>
	</g>
</g>
<g>
	<g>
		<path d="M205.075,448.486c14.234-9.49,22.732-25.369,22.732-42.475c0-17.107-8.498-32.986-22.732-42.475
			c-6.89-4.593-16.204-2.732-20.798,4.16c-4.594,6.892-2.732,16.204,4.16,20.798c5.957,3.971,9.374,10.357,9.374,17.517
			c0,7.16-3.417,13.547-9.374,17.519c-14.234,9.49-22.732,25.556-22.732,42.975c0,17.42,8.499,33.486,22.732,42.974
			c6.861,4.574,16.184,2.763,20.798-4.16c4.594-6.892,2.732-16.204-4.16-20.798c-5.957-3.971-9.375-10.539-9.375-18.017
			S199.117,452.459,205.075,448.486z"/>
	</g>
</g>
<g>
	<g>
		<path d="M415.048,448.486c14.234-9.49,22.732-25.369,22.732-42.475c0-17.107-8.498-32.986-22.732-42.475
			c-6.891-4.593-16.203-2.732-20.798,4.16c-4.594,6.892-2.732,16.204,4.16,20.798c5.957,3.971,9.374,10.357,9.374,17.517
			c0,7.16-3.417,13.547-9.374,17.519c-14.234,9.49-22.732,25.556-22.732,42.975c0,17.42,8.499,33.486,22.732,42.974
			c6.861,4.574,16.184,2.763,20.798-4.16c4.594-6.892,2.732-16.204-4.16-20.798c-5.957-3.971-9.375-10.539-9.375-18.017
			S409.089,452.459,415.048,448.486z"/>
	</g>
</g>
<g>
	<g>
		<path d="M310.061,448.486c14.234-9.49,22.732-25.369,22.732-42.475c0-17.107-8.498-32.986-22.732-42.475
			c-6.89-4.593-16.203-2.732-20.798,4.16c-4.594,6.892-2.732,16.204,4.16,20.798c5.957,3.971,9.374,10.357,9.374,17.517
			c0,7.16-3.417,13.547-9.374,17.519c-14.234,9.49-22.732,25.556-22.732,42.975c0,17.42,8.499,33.486,22.732,42.974
			c6.861,4.574,16.184,2.763,20.798-4.16c4.594-6.892,2.732-16.204-4.161-20.798c-5.957-3.971-9.375-10.539-9.375-18.017
			S304.103,452.459,310.061,448.486z"/>
	</g>
</g>
<g>
	<g>
		<path d="M506.299,244.225L360.985,128.744V14.998C360.985,6.715,354.27,0,345.987,0H166.01c-8.283,0-14.998,6.715-14.998,14.998
			v113.746L5.699,244.225c-3.454,2.741-5.666,7.095-5.666,11.741v59.992c0,8.283,6.715,14.998,14.998,14.998h481.937
			c8.283,0,14.998-6.715,14.998-14.998v-59.992C511.965,251.281,509.723,246.938,506.299,244.225z M181.008,29.996h149.98v90.988
			h-149.98V29.996z M171.244,150.98h169.509l113.235,89.988H58.009L171.244,150.98z M481.969,300.961H30.028v-29.996h451.941
			V300.961z"/>
	</g>
</g>
<g>
</g>
<g>
</g>
<g>
</g>
<g>
</g>
<g>
</g>
<g>
</g>
<g>
</g>
<g>
</g>
<g>
</g>
<g>
</g>
<g>
</g>
<g>
</g>
<g>
</g>
<g>
</g>
<g>
</g>
</svg>
